<svg width="55" height="55" viewBox="0 0 55 55" fill="none" xmlns="http://www.w3.org/2000/svg">
<rect x="0.451229" y="0.366135" width="54.2683" height="54.2683" rx="27.1341" fill="#E1F0FF"/>
<g clip-path="url(#clip0_2_2697)">
<path d="M27.6678 30.6501C21.2843 30.6501 17.9373 29.5041 16.1887 28.2126V36.751H38.7151V28.3515C35.6947 30.4361 29.8716 30.6501 27.6678 30.6501ZM29.3291 33.0267C29.3291 34.0469 28.4881 34.8738 27.4519 34.8738C26.4157 34.8738 25.5747 34.0469 25.5747 33.0267V32.058H29.3291V33.0267ZM16.1887 25.0101V22.672H38.7151V25.1171C38.7151 30.0813 16.1887 29.9349 16.1887 25.0101ZM24.6361 17.979C23.5999 17.979 22.7589 18.82 22.7589 19.8562V21.7334H24.6361V20.3255C24.6361 20.0664 24.8463 19.8562 25.1054 19.8562H29.7984C30.0574 19.8562 30.2677 20.0664 30.2677 20.3255V21.7334H32.1449V19.8562C32.1449 18.82 31.3039 17.979 30.2677 17.979H24.6361Z" fill="#054D92"/>
</g>
<defs>
<clipPath id="clip0_2_2697">
<rect width="22.5265" height="22.5265" fill="white" transform="translate(16.1891 16.1026)"/>
</clipPath>
</defs>
</svg>
