<svg width="20" height="20" viewBox="0 0 20 20" fill="none" xmlns="http://www.w3.org/2000/svg">
<path d="M9.99995 1.66679C5.39744 1.66679 1.66661 5.39762 1.66661 10.0001C1.66661 14.6026 5.39744 18.3335 9.99995 18.3335C14.6024 18.3335 18.3333 14.6026 18.3333 10.0001C18.3333 5.39762 14.6024 1.66679 9.99995 1.66679ZM12.1549 13.3335L9.41078 10.5893C9.25411 10.4326 9.16661 10.221 9.16661 10.0001V5.83345C9.16661 5.37345 9.53995 5.00012 9.99995 5.00012C10.4599 5.00012 10.8333 5.37345 10.8333 5.83345V9.65512L13.3333 12.1551C13.6583 12.4801 13.6583 13.0085 13.3333 13.3335C13.0083 13.6585 12.4799 13.6585 12.1549 13.3335Z" fill="#39B96C"/>
</svg>
