<svg width="265" height="285" viewBox="0 0 265 285" fill="none" xmlns="http://www.w3.org/2000/svg">
<circle cx="2.5" cy="2.5" r="2.5" fill="#EFEFEF"/>
<circle cx="2.5" cy="22.5" r="2.5" fill="#EFEFEF"/>
<circle cx="2.5" cy="42.5" r="2.5" fill="#EFEFEF"/>
<circle cx="2.5" cy="62.5" r="2.5" fill="#EFEFEF"/>
<circle cx="2.5" cy="82.5" r="2.5" fill="#EFEFEF"/>
<circle cx="2.5" cy="102.5" r="2.5" fill="#EFEFEF"/>
<circle cx="2.5" cy="122.5" r="2.5" fill="#EFEFEF"/>
<circle cx="2.5" cy="142.5" r="2.5" fill="#EFEFEF"/>
<circle cx="2.5" cy="162.5" r="2.5" fill="#EFEFEF"/>
<circle cx="2.5" cy="182.5" r="2.5" fill="#EFEFEF"/>
<circle cx="2.5" cy="202.5" r="2.5" fill="#EFEFEF"/>
<circle cx="2.5" cy="222.5" r="2.5" fill="#EFEFEF"/>
<circle cx="2.5" cy="242.5" r="2.5" fill="#EFEFEF"/>
<circle cx="2.5" cy="262.5" r="2.5" fill="#EFEFEF"/>
<circle cx="2.5" cy="282.5" r="2.5" fill="#EFEFEF"/>
<circle cx="22.5" cy="2.5" r="2.5" fill="#EFEFEF"/>
<circle cx="22.5" cy="22.5" r="2.5" fill="#EFEFEF"/>
<circle cx="22.5" cy="42.5" r="2.5" fill="#EFEFEF"/>
<circle cx="22.5" cy="62.5" r="2.5" fill="#EFEFEF"/>
<circle cx="22.5" cy="82.5" r="2.5" fill="#EFEFEF"/>
<circle cx="22.5" cy="102.5" r="2.5" fill="#EFEFEF"/>
<circle cx="22.5" cy="122.5" r="2.5" fill="#EFEFEF"/>
<circle cx="22.5" cy="142.5" r="2.5" fill="#EFEFEF"/>
<circle cx="22.5" cy="162.5" r="2.5" fill="#EFEFEF"/>
<circle cx="22.5" cy="182.5" r="2.5" fill="#EFEFEF"/>
<circle cx="22.5" cy="202.5" r="2.5" fill="#EFEFEF"/>
<circle cx="22.5" cy="222.5" r="2.5" fill="#EFEFEF"/>
<circle cx="22.5" cy="242.5" r="2.5" fill="#EFEFEF"/>
<circle cx="22.5" cy="262.5" r="2.5" fill="#EFEFEF"/>
<circle cx="22.5" cy="282.5" r="2.5" fill="#EFEFEF"/>
<circle cx="42.5" cy="2.5" r="2.5" fill="#EFEFEF"/>
<circle cx="42.5" cy="22.5" r="2.5" fill="#EFEFEF"/>
<circle cx="42.5" cy="42.5" r="2.5" fill="#EFEFEF"/>
<circle cx="42.5" cy="62.5" r="2.5" fill="#EFEFEF"/>
<circle cx="42.5" cy="82.5" r="2.5" fill="#EFEFEF"/>
<circle cx="42.5" cy="102.5" r="2.5" fill="#EFEFEF"/>
<circle cx="42.5" cy="122.5" r="2.5" fill="#EFEFEF"/>
<circle cx="42.5" cy="142.5" r="2.5" fill="#EFEFEF"/>
<circle cx="42.5" cy="162.5" r="2.5" fill="#EFEFEF"/>
<circle cx="42.5" cy="182.5" r="2.5" fill="#EFEFEF"/>
<circle cx="42.5" cy="202.5" r="2.5" fill="#EFEFEF"/>
<circle cx="42.5" cy="222.5" r="2.5" fill="#EFEFEF"/>
<circle cx="42.5" cy="242.5" r="2.5" fill="#EFEFEF"/>
<circle cx="42.5" cy="262.5" r="2.5" fill="#EFEFEF"/>
<circle cx="42.5" cy="282.5" r="2.5" fill="#EFEFEF"/>
<circle cx="62.5" cy="2.5" r="2.5" fill="#EFEFEF"/>
<circle cx="62.5" cy="22.5" r="2.5" fill="#EFEFEF"/>
<circle cx="62.5" cy="42.5" r="2.5" fill="#EFEFEF"/>
<circle cx="62.5" cy="62.5" r="2.5" fill="#EFEFEF"/>
<circle cx="62.5" cy="82.5" r="2.5" fill="#EFEFEF"/>
<circle cx="62.5" cy="102.5" r="2.5" fill="#EFEFEF"/>
<circle cx="62.5" cy="122.5" r="2.5" fill="#EFEFEF"/>
<circle cx="62.5" cy="142.5" r="2.5" fill="#EFEFEF"/>
<circle cx="62.5" cy="162.5" r="2.5" fill="#EFEFEF"/>
<circle cx="62.5" cy="182.5" r="2.5" fill="#EFEFEF"/>
<circle cx="62.5" cy="202.5" r="2.5" fill="#EFEFEF"/>
<circle cx="62.5" cy="222.5" r="2.5" fill="#EFEFEF"/>
<circle cx="62.5" cy="242.5" r="2.5" fill="#EFEFEF"/>
<circle cx="62.5" cy="262.5" r="2.5" fill="#EFEFEF"/>
<circle cx="62.5" cy="282.5" r="2.5" fill="#EFEFEF"/>
<circle cx="82.5" cy="2.5" r="2.5" fill="#EFEFEF"/>
<circle cx="82.5" cy="22.5" r="2.5" fill="#EFEFEF"/>
<circle cx="82.5" cy="42.5" r="2.5" fill="#EFEFEF"/>
<circle cx="82.5" cy="62.5" r="2.5" fill="#EFEFEF"/>
<circle cx="82.5" cy="82.5" r="2.5" fill="#EFEFEF"/>
<circle cx="82.5" cy="102.5" r="2.5" fill="#EFEFEF"/>
<circle cx="82.5" cy="122.5" r="2.5" fill="#EFEFEF"/>
<circle cx="82.5" cy="142.5" r="2.5" fill="#EFEFEF"/>
<circle cx="82.5" cy="162.5" r="2.5" fill="#EFEFEF"/>
<circle cx="82.5" cy="182.5" r="2.5" fill="#EFEFEF"/>
<circle cx="82.5" cy="202.5" r="2.5" fill="#EFEFEF"/>
<circle cx="82.5" cy="222.5" r="2.5" fill="#EFEFEF"/>
<circle cx="82.5" cy="242.5" r="2.5" fill="#EFEFEF"/>
<circle cx="82.5" cy="262.5" r="2.5" fill="#EFEFEF"/>
<circle cx="82.5" cy="282.5" r="2.5" fill="#EFEFEF"/>
<circle cx="102.5" cy="2.5" r="2.5" fill="#EFEFEF"/>
<circle cx="102.5" cy="22.5" r="2.5" fill="#EFEFEF"/>
<circle cx="102.5" cy="42.5" r="2.5" fill="#EFEFEF"/>
<circle cx="102.5" cy="62.5" r="2.5" fill="#EFEFEF"/>
<circle cx="102.5" cy="82.5" r="2.5" fill="#EFEFEF"/>
<circle cx="102.5" cy="102.5" r="2.5" fill="#EFEFEF"/>
<circle cx="102.5" cy="122.5" r="2.5" fill="#EFEFEF"/>
<circle cx="102.5" cy="142.5" r="2.5" fill="#EFEFEF"/>
<circle cx="102.5" cy="162.5" r="2.5" fill="#EFEFEF"/>
<circle cx="102.5" cy="182.5" r="2.5" fill="#EFEFEF"/>
<circle cx="102.5" cy="202.5" r="2.5" fill="#EFEFEF"/>
<circle cx="102.5" cy="222.5" r="2.5" fill="#EFEFEF"/>
<circle cx="102.5" cy="242.5" r="2.5" fill="#EFEFEF"/>
<circle cx="102.5" cy="262.5" r="2.5" fill="#EFEFEF"/>
<circle cx="102.5" cy="282.5" r="2.5" fill="#EFEFEF"/>
<circle cx="122.5" cy="2.5" r="2.5" fill="#EFEFEF"/>
<circle cx="122.5" cy="22.5" r="2.5" fill="#EFEFEF"/>
<circle cx="122.5" cy="42.5" r="2.5" fill="#EFEFEF"/>
<circle cx="122.5" cy="62.5" r="2.5" fill="#EFEFEF"/>
<circle cx="122.5" cy="82.5" r="2.5" fill="#EFEFEF"/>
<circle cx="122.5" cy="102.5" r="2.5" fill="#EFEFEF"/>
<circle cx="122.5" cy="122.5" r="2.5" fill="#EFEFEF"/>
<circle cx="122.5" cy="142.5" r="2.5" fill="#EFEFEF"/>
<circle cx="122.5" cy="162.5" r="2.5" fill="#EFEFEF"/>
<circle cx="122.5" cy="182.5" r="2.5" fill="#EFEFEF"/>
<circle cx="122.5" cy="202.5" r="2.5" fill="#EFEFEF"/>
<circle cx="122.5" cy="222.5" r="2.5" fill="#EFEFEF"/>
<circle cx="122.5" cy="242.5" r="2.5" fill="#EFEFEF"/>
<circle cx="122.5" cy="262.5" r="2.5" fill="#EFEFEF"/>
<circle cx="122.5" cy="282.5" r="2.5" fill="#EFEFEF"/>
<circle cx="142.5" cy="2.5" r="2.5" fill="#EFEFEF"/>
<circle cx="142.5" cy="22.5" r="2.5" fill="#EFEFEF"/>
<circle cx="142.5" cy="42.5" r="2.5" fill="#EFEFEF"/>
<circle cx="142.5" cy="62.5" r="2.5" fill="#EFEFEF"/>
<circle cx="142.5" cy="82.5" r="2.5" fill="#EFEFEF"/>
<circle cx="142.5" cy="102.5" r="2.5" fill="#EFEFEF"/>
<circle cx="142.5" cy="122.5" r="2.5" fill="#EFEFEF"/>
<circle cx="142.5" cy="142.5" r="2.5" fill="#EFEFEF"/>
<circle cx="142.5" cy="162.5" r="2.5" fill="#EFEFEF"/>
<circle cx="142.5" cy="182.5" r="2.5" fill="#EFEFEF"/>
<circle cx="142.5" cy="202.5" r="2.5" fill="#EFEFEF"/>
<circle cx="142.5" cy="222.5" r="2.5" fill="#EFEFEF"/>
<circle cx="142.5" cy="242.5" r="2.5" fill="#EFEFEF"/>
<circle cx="142.5" cy="262.5" r="2.5" fill="#EFEFEF"/>
<circle cx="142.5" cy="282.5" r="2.5" fill="#EFEFEF"/>
<circle cx="162.5" cy="2.5" r="2.5" fill="#EFEFEF"/>
<circle cx="162.5" cy="22.5" r="2.5" fill="#EFEFEF"/>
<circle cx="162.5" cy="42.5" r="2.5" fill="#EFEFEF"/>
<circle cx="162.5" cy="62.5" r="2.5" fill="#EFEFEF"/>
<circle cx="162.5" cy="82.5" r="2.5" fill="#EFEFEF"/>
<circle cx="162.5" cy="102.5" r="2.5" fill="#EFEFEF"/>
<circle cx="162.5" cy="122.5" r="2.5" fill="#EFEFEF"/>
<circle cx="162.5" cy="142.5" r="2.5" fill="#EFEFEF"/>
<circle cx="162.5" cy="162.5" r="2.5" fill="#EFEFEF"/>
<circle cx="162.5" cy="182.5" r="2.5" fill="#EFEFEF"/>
<circle cx="162.5" cy="202.5" r="2.5" fill="#EFEFEF"/>
<circle cx="162.5" cy="222.5" r="2.5" fill="#EFEFEF"/>
<circle cx="162.5" cy="242.5" r="2.5" fill="#EFEFEF"/>
<circle cx="162.5" cy="262.5" r="2.5" fill="#EFEFEF"/>
<circle cx="162.5" cy="282.5" r="2.5" fill="#EFEFEF"/>
<circle cx="182.5" cy="2.5" r="2.5" fill="#EFEFEF"/>
<circle cx="182.5" cy="22.5" r="2.5" fill="#EFEFEF"/>
<circle cx="182.5" cy="42.5" r="2.5" fill="#EFEFEF"/>
<circle cx="182.5" cy="62.5" r="2.5" fill="#EFEFEF"/>
<circle cx="182.5" cy="82.5" r="2.5" fill="#EFEFEF"/>
<circle cx="182.5" cy="102.5" r="2.5" fill="#EFEFEF"/>
<circle cx="182.5" cy="122.5" r="2.5" fill="#EFEFEF"/>
<circle cx="182.5" cy="142.5" r="2.5" fill="#EFEFEF"/>
<circle cx="182.5" cy="162.5" r="2.5" fill="#EFEFEF"/>
<circle cx="182.5" cy="182.5" r="2.5" fill="#EFEFEF"/>
<circle cx="182.5" cy="202.5" r="2.5" fill="#EFEFEF"/>
<circle cx="182.5" cy="222.5" r="2.5" fill="#EFEFEF"/>
<circle cx="182.5" cy="242.5" r="2.5" fill="#EFEFEF"/>
<circle cx="182.5" cy="262.5" r="2.5" fill="#EFEFEF"/>
<circle cx="182.5" cy="282.5" r="2.5" fill="#EFEFEF"/>
<circle cx="202.5" cy="2.5" r="2.5" fill="#EFEFEF"/>
<circle cx="202.5" cy="22.5" r="2.5" fill="#EFEFEF"/>
<circle cx="202.5" cy="42.5" r="2.5" fill="#EFEFEF"/>
<circle cx="202.5" cy="62.5" r="2.5" fill="#EFEFEF"/>
<circle cx="202.5" cy="82.5" r="2.5" fill="#EFEFEF"/>
<circle cx="202.5" cy="102.5" r="2.5" fill="#EFEFEF"/>
<circle cx="202.5" cy="122.5" r="2.5" fill="#EFEFEF"/>
<circle cx="202.5" cy="142.5" r="2.5" fill="#EFEFEF"/>
<circle cx="202.5" cy="162.5" r="2.5" fill="#EFEFEF"/>
<circle cx="202.5" cy="182.5" r="2.5" fill="#EFEFEF"/>
<circle cx="202.5" cy="202.5" r="2.5" fill="#EFEFEF"/>
<circle cx="202.5" cy="222.5" r="2.5" fill="#EFEFEF"/>
<circle cx="202.5" cy="242.5" r="2.5" fill="#EFEFEF"/>
<circle cx="202.5" cy="262.5" r="2.5" fill="#EFEFEF"/>
<circle cx="202.5" cy="282.5" r="2.5" fill="#EFEFEF"/>
<circle cx="222.5" cy="2.5" r="2.5" fill="#EFEFEF"/>
<circle cx="222.5" cy="22.5" r="2.5" fill="#EFEFEF"/>
<circle cx="222.5" cy="42.5" r="2.5" fill="#EFEFEF"/>
<circle cx="222.5" cy="62.5" r="2.5" fill="#EFEFEF"/>
<circle cx="222.5" cy="82.5" r="2.5" fill="#EFEFEF"/>
<circle cx="222.5" cy="102.5" r="2.5" fill="#EFEFEF"/>
<circle cx="222.5" cy="122.5" r="2.5" fill="#EFEFEF"/>
<circle cx="222.5" cy="142.5" r="2.5" fill="#EFEFEF"/>
<circle cx="222.5" cy="162.5" r="2.5" fill="#EFEFEF"/>
<circle cx="222.5" cy="182.5" r="2.5" fill="#EFEFEF"/>
<circle cx="222.5" cy="202.5" r="2.5" fill="#EFEFEF"/>
<circle cx="222.5" cy="222.5" r="2.5" fill="#EFEFEF"/>
<circle cx="222.5" cy="242.5" r="2.5" fill="#EFEFEF"/>
<circle cx="222.5" cy="262.5" r="2.5" fill="#EFEFEF"/>
<circle cx="222.5" cy="282.5" r="2.5" fill="#EFEFEF"/>
<circle cx="242.5" cy="2.5" r="2.5" fill="#EFEFEF"/>
<circle cx="242.5" cy="22.5" r="2.5" fill="#EFEFEF"/>
<circle cx="242.5" cy="42.5" r="2.5" fill="#EFEFEF"/>
<circle cx="242.5" cy="62.5" r="2.5" fill="#EFEFEF"/>
<circle cx="242.5" cy="82.5" r="2.5" fill="#EFEFEF"/>
<circle cx="242.5" cy="102.5" r="2.5" fill="#EFEFEF"/>
<circle cx="242.5" cy="122.5" r="2.5" fill="#EFEFEF"/>
<circle cx="242.5" cy="142.5" r="2.5" fill="#EFEFEF"/>
<circle cx="242.5" cy="162.5" r="2.5" fill="#EFEFEF"/>
<circle cx="242.5" cy="182.5" r="2.5" fill="#EFEFEF"/>
<circle cx="242.5" cy="202.5" r="2.5" fill="#EFEFEF"/>
<circle cx="242.5" cy="222.5" r="2.5" fill="#EFEFEF"/>
<circle cx="242.5" cy="242.5" r="2.5" fill="#EFEFEF"/>
<circle cx="242.5" cy="262.5" r="2.5" fill="#EFEFEF"/>
<circle cx="242.5" cy="282.5" r="2.5" fill="#EFEFEF"/>
<circle cx="262.5" cy="2.5" r="2.5" fill="#EFEFEF"/>
<circle cx="262.5" cy="22.5" r="2.5" fill="#EFEFEF"/>
<circle cx="262.5" cy="42.5" r="2.5" fill="#EFEFEF"/>
<circle cx="262.5" cy="62.5" r="2.5" fill="#EFEFEF"/>
<circle cx="262.5" cy="82.5" r="2.5" fill="#EFEFEF"/>
<circle cx="262.5" cy="102.5" r="2.5" fill="#EFEFEF"/>
<circle cx="262.5" cy="122.5" r="2.5" fill="#EFEFEF"/>
<circle cx="262.5" cy="142.5" r="2.5" fill="#EFEFEF"/>
<circle cx="262.5" cy="162.5" r="2.5" fill="#EFEFEF"/>
<circle cx="262.5" cy="182.5" r="2.5" fill="#EFEFEF"/>
<circle cx="262.5" cy="202.5" r="2.5" fill="#EFEFEF"/>
<circle cx="262.5" cy="222.5" r="2.5" fill="#EFEFEF"/>
<circle cx="262.5" cy="242.5" r="2.5" fill="#EFEFEF"/>
<circle cx="262.5" cy="262.5" r="2.5" fill="#EFEFEF"/>
<circle cx="262.5" cy="282.5" r="2.5" fill="#EFEFEF"/>
</svg>
