<svg width="112" height="20" viewBox="0 0 112 20" fill="none" xmlns="http://www.w3.org/2000/svg">
<path d="M16.5 9.31136V10.0014C16.4991 11.6187 15.9754 13.1924 15.007 14.4877C14.0386 15.7831 12.6775 16.7307 11.1265 17.1893C9.57557 17.6479 7.91794 17.5928 6.40085 17.0323C4.88376 16.4718 3.58849 15.4359 2.70822 14.0792C1.82795 12.7224 1.40984 11.1174 1.51626 9.5036C1.62267 7.88979 2.24791 6.35361 3.29871 5.12417C4.34951 3.89473 5.76959 3.0379 7.34714 2.68147C8.92469 2.32505 10.5752 2.48812 12.0525 3.14636" stroke="#27AF71" stroke-width="1.5" stroke-linecap="round" stroke-linejoin="round"/>
<path d="M16.5 4L9 11.5075L6.75 9.2575" stroke="#27AF71" stroke-width="1.5" stroke-linecap="round" stroke-linejoin="round"/>
<path d="M35.4473 9.90723C35.4473 11.557 34.9893 12.8193 34.0732 13.6943C33.1572 14.5648 31.8379 15 30.1152 15H27.3193V5.00586H30.4092C31.9997 5.00586 33.237 5.43424 34.1211 6.29102C35.0052 7.14779 35.4473 8.35319 35.4473 9.90723ZM33.7246 9.96191C33.7246 7.56934 32.6058 6.37305 30.3682 6.37305H28.9531V13.626H30.1152C32.5215 13.626 33.7246 12.4046 33.7246 9.96191ZM43.2539 15H37.6006V5.00586H43.2539V6.38672H39.2344V9.10742H43.001V10.4746H39.2344V13.6123H43.2539V15ZM51.1836 12.2861C51.1836 13.1748 50.8623 13.8721 50.2197 14.3779C49.5771 14.8838 48.6908 15.1367 47.5605 15.1367C46.4303 15.1367 45.5052 14.9613 44.7852 14.6104V13.0654C45.2409 13.2796 45.724 13.4482 46.2344 13.5713C46.7493 13.6943 47.2279 13.7559 47.6699 13.7559C48.3171 13.7559 48.7933 13.6328 49.0986 13.3867C49.4085 13.1406 49.5635 12.8102 49.5635 12.3955C49.5635 12.0218 49.4222 11.7051 49.1396 11.4453C48.8571 11.1855 48.2738 10.8779 47.3896 10.5225C46.4782 10.1533 45.8356 9.73177 45.4619 9.25781C45.0882 8.78385 44.9014 8.21419 44.9014 7.54883C44.9014 6.71484 45.1976 6.05859 45.79 5.58008C46.3825 5.10156 47.1777 4.8623 48.1758 4.8623C49.1328 4.8623 50.0853 5.07194 51.0332 5.49121L50.5137 6.82422C49.625 6.45052 48.832 6.26367 48.1348 6.26367C47.6061 6.26367 47.2051 6.37988 46.9316 6.6123C46.6582 6.84017 46.5215 7.14323 46.5215 7.52148C46.5215 7.78125 46.5762 8.00456 46.6855 8.19141C46.7949 8.3737 46.9749 8.54688 47.2256 8.71094C47.4762 8.875 47.9274 9.09147 48.5791 9.36035C49.3128 9.66569 49.8506 9.95052 50.1924 10.2148C50.5342 10.4792 50.7848 10.7777 50.9443 11.1104C51.1038 11.443 51.1836 11.835 51.1836 12.2861ZM53.1182 15V5.00586H54.752V15H53.1182ZM59.0312 9.6543H60.166C60.9271 9.6543 61.4785 9.51302 61.8203 9.23047C62.1621 8.94792 62.333 8.52865 62.333 7.97266C62.333 7.40755 62.1484 7.00195 61.7793 6.75586C61.4102 6.50977 60.8542 6.38672 60.1113 6.38672H59.0312V9.6543ZM59.0312 11.0078V15H57.3975V5.00586H60.2207C61.5104 5.00586 62.4652 5.2474 63.085 5.73047C63.7048 6.21354 64.0146 6.94271 64.0146 7.91797C64.0146 9.16211 63.3675 10.0485 62.0732 10.5771L64.8965 15H63.0371L60.6445 11.0078H59.0312ZM72.0059 15H66.3525V5.00586H72.0059V6.38672H67.9863V9.10742H71.7529V10.4746H67.9863V13.6123H72.0059V15ZM82.3008 9.90723C82.3008 11.557 81.8428 12.8193 80.9268 13.6943C80.0107 14.5648 78.6914 15 76.9688 15H74.1729V5.00586H77.2627C78.8532 5.00586 80.0905 5.43424 80.9746 6.29102C81.8587 7.14779 82.3008 8.35319 82.3008 9.90723ZM80.5781 9.96191C80.5781 7.56934 79.4593 6.37305 77.2217 6.37305H75.8066V13.626H76.9688C79.375 13.626 80.5781 12.4046 80.5781 9.96191ZM86.8262 17.7891C86.3796 17.7891 86.0059 17.7321 85.7051 17.6182V16.2441C86.0879 16.3398 86.4206 16.3877 86.7031 16.3877C87.5964 16.3877 88.043 15.8226 88.043 14.6924V5.00586H89.6836V14.6377C89.6836 15.6585 89.4398 16.4378 88.9521 16.9756C88.4691 17.5179 87.7604 17.7891 86.8262 17.7891ZM101.147 9.98926C101.147 11.6162 100.74 12.8809 99.9238 13.7832C99.1126 14.6855 97.9619 15.1367 96.4717 15.1367C94.9632 15.1367 93.8034 14.6901 92.9922 13.7969C92.1855 12.8991 91.7822 11.6253 91.7822 9.97559C91.7822 8.32585 92.1878 7.05892 92.999 6.1748C93.8148 5.29069 94.9769 4.84863 96.4854 4.84863C97.971 4.84863 99.1195 5.29753 99.9307 6.19531C100.742 7.0931 101.147 8.35775 101.147 9.98926ZM93.5186 9.98926C93.5186 11.2197 93.7669 12.154 94.2637 12.792C94.7604 13.4255 95.4964 13.7422 96.4717 13.7422C97.4424 13.7422 98.1738 13.4277 98.666 12.7988C99.1628 12.1699 99.4111 11.2334 99.4111 9.98926C99.4111 8.76335 99.165 7.83366 98.6729 7.2002C98.1852 6.56673 97.4561 6.25 96.4854 6.25C95.5055 6.25 94.765 6.56673 94.2637 7.2002C93.7669 7.83366 93.5186 8.76335 93.5186 9.98926ZM103.294 5.00586H106.261C107.637 5.00586 108.631 5.20638 109.241 5.60742C109.856 6.00846 110.164 6.64193 110.164 7.50781C110.164 8.09115 110.014 8.5765 109.713 8.96387C109.412 9.35124 108.979 9.59505 108.414 9.69531V9.76367C109.116 9.89583 109.631 10.1579 109.959 10.5498C110.292 10.9372 110.458 11.4635 110.458 12.1289C110.458 13.0267 110.144 13.7308 109.515 14.2412C108.89 14.7471 108.02 15 106.903 15H103.294V5.00586ZM104.928 9.13477H106.5C107.184 9.13477 107.683 9.02767 107.997 8.81348C108.312 8.59473 108.469 8.22559 108.469 7.70605C108.469 7.23665 108.298 6.89714 107.956 6.6875C107.619 6.47786 107.081 6.37305 106.343 6.37305H104.928V9.13477ZM104.928 10.4609V13.626H106.664C107.348 13.626 107.863 13.4961 108.209 13.2363C108.56 12.972 108.735 12.5573 108.735 11.9922C108.735 11.4727 108.558 11.0876 108.202 10.8369C107.847 10.5863 107.307 10.4609 106.582 10.4609H104.928Z" fill="#27AF71"/>
</svg>
