<?xml version="1.0" encoding="UTF-8" standalone="no"?>
<svg
   width="24"
   height="21"
   viewBox="0 0 24 21"
   fill="none"
   version="1.1"
   id="svg4"
   sodipodi:docname="heart.svg"
   inkscape:version="1.1 (c68e22c387, 2021-05-23)"
   xmlns:inkscape="http://www.inkscape.org/namespaces/inkscape"
   xmlns:sodipodi="http://sodipodi.sourceforge.net/DTD/sodipodi-0.dtd"
   xmlns="http://www.w3.org/2000/svg"
   xmlns:svg="http://www.w3.org/2000/svg">
  <defs
     id="defs8" />
  <sodipodi:namedview
     id="namedview6"
     pagecolor="#505050"
     bordercolor="#ffffff"
     borderopacity="1"
     inkscape:pageshadow="0"
     inkscape:pageopacity="0"
     inkscape:pagecheckerboard="1"
     showgrid="false"
     inkscape:zoom="36.666667"
     inkscape:cx="12.013636"
     inkscape:cy="10.377273"
     inkscape:window-width="1920"
     inkscape:window-height="974"
     inkscape:window-x="-11"
     inkscape:window-y="-11"
     inkscape:window-maximized="1"
     inkscape:current-layer="svg4" />
  <path
     d="M20.8401 2.61183C20.3294 2.10083 19.7229 1.69547 19.0555 1.41891C18.388 1.14235 17.6726 1 16.9501 1C16.2276 1 15.5122 1.14235 14.8448 1.41891C14.1773 1.69547 13.5709 2.10083 13.0601 2.61183L12.0001 3.67183L10.9401 2.61183C9.90843 1.58013 8.50915 1.00053 7.05012 1.00053C5.59109 1.00053 4.19181 1.58013 3.16012 2.61183C2.12843 3.64352 1.54883 5.04279 1.54883 6.50183C1.54883 7.96086 2.12843 9.36013 3.16012 10.3918L4.22012 11.4518L12.0001 19.2318L19.7801 11.4518L20.8401 10.3918C21.3511 9.88107 21.7565 9.27464 22.033 8.60718C22.3096 7.93972 22.4519 7.22431 22.4519 6.50183C22.4519 5.77934 22.3096 5.06393 22.033 4.39647C21.7565 3.72901 21.3511 3.12258 20.8401 2.61183V2.61183Z"
     stroke="#181818"
     stroke-width="2"
     stroke-linecap="round"
     id="path2" />
  <path
     style="fill:#ff2a2a;stroke-width:0.0272727"
     d="M 7.8096491,13.60236 C 4.8990488,10.689564 3.5696045,9.3409227 3.4560113,9.1858552 2.8061775,8.2987593 2.5054367,7.2665373 2.5794522,6.1772727 2.7138446,4.1994578 4.1808645,2.5206199 6.130515,2.113484 7.3307487,1.8628452 8.5240064,2.1003096 9.5768223,2.7993168 9.8357954,2.9712596 10.003951,3.1262432 10.924112,4.0410719 11.502374,4.6159823 11.986523,5.0863636 12,5.0863636 c 0.01348,0 0.497626,-0.4704546 1.075888,-1.0454548 0.94542,-0.9400883 1.082998,-1.0663785 1.365052,-1.2530602 0.545696,-0.3611763 1.12167,-0.5944061 1.744835,-0.7065371 0.43659,-0.078559 1.09186,-0.078559 1.52845,0 1.750248,0.314936 3.16031,1.6218692 3.580828,3.3189318 0.08887,0.3586552 0.101128,0.4345303 0.127633,0.7901378 0.08723,1.1703758 -0.320461,2.3799545 -1.098664,3.2596189 -0.112794,0.1275 -2.031896,2.057425 -4.264672,4.288723 l -4.059592,4.056906 z"
     id="path84" />
</svg>
