<svg width="60" height="60" viewBox="0 0 60 60" fill="none" xmlns="http://www.w3.org/2000/svg">
<path d="M35.7554 8.85628C33.79 8.20115 31.6854 7.66395 29.607 7.89816C26.3098 8.27668 23.1712 9.5197 20.5089 11.5014C15.2859 15.3961 13.9429 22.4387 11.7613 28.2579C10.9424 30.4412 10.1235 32.6457 9.76805 34.9517C8.73295 41.7929 13.3008 44.2595 19.2216 45.9399C26.6818 48.0576 34.8464 47.4254 42.12 44.8704C48.3159 42.6937 50.8004 37.4461 49.4902 31.1782C48.835 28.086 47.6001 25.151 46.3554 22.2438C43.9871 16.7277 41.7482 10.879 35.7554 8.85628Z" fill="#00214E"/>
<path d="M50.3791 45.8847C45.0566 49.9821 38.5212 52.1902 31.8043 52.1606C25.0874 52.1309 18.5717 49.8651 13.2856 45.7209L21.2553 41.985C21.4992 41.8696 21.737 41.7417 21.9677 41.6018L22.1512 41.4871C22.2167 41.4462 22.2806 41.4036 22.3444 41.3594C23.3509 40.6634 24.175 39.7353 24.7471 38.6537C25.4023 37.4171 25.6184 36.0528 25.6283 34.6607C25.6283 33.7222 25.5775 32.787 25.5677 31.8469C25.5611 31.3282 25.5557 30.809 25.5513 30.2893L25.8789 30.4531L26.7305 30.8937L31.6915 31.7371L36.7884 32.6052L36.9424 37.8462L37.0144 40.4553L38.893 41.2201L40.367 41.8163L50.3791 45.8847Z" fill="#E18477"/>
<path d="M36.9346 37.3017C36.4891 37.5768 36.0682 37.7062 35.6997 37.6669C33.2774 37.4065 28.5522 35.5082 25.578 31.9951C25.578 31.8226 25.5747 31.6506 25.5681 31.4792C25.5616 30.9595 25.5561 30.4403 25.5518 29.9216L25.8793 30.0854L26.731 30.526L31.692 31.3695L36.7889 32.2375L36.9346 37.3017Z" fill="#A76962"/>
<path d="M50.3791 45.8852C45.0566 49.9826 38.5212 52.1908 31.8043 52.1611C25.0874 52.1315 18.5717 49.8657 13.2856 45.7214L21.2553 41.9855C21.501 41.8698 21.7384 41.7426 21.9677 41.6039C25.8461 44.4554 31.2444 46.311 35.8991 44.2163C37.2192 43.6234 38.4098 42.5784 38.8946 41.2174L40.3687 41.8136L50.3791 45.8852Z" fill="#FF2609"/>
<path d="M21.401 27.8351C22.9387 27.8351 24.1853 26.5885 24.1853 25.0508C24.1853 23.5131 22.9387 22.2665 21.401 22.2665C19.8633 22.2665 18.6167 23.5131 18.6167 25.0508C18.6167 26.5885 19.8633 27.8351 21.401 27.8351Z" fill="#E18477"/>
<path d="M22.5475 27.51C24.0852 27.51 25.3318 26.2634 25.3318 24.7257C25.3318 23.188 24.0852 21.9414 22.5475 21.9414C21.0098 21.9414 19.7632 23.188 19.7632 24.7257C19.7632 26.2634 21.0098 27.51 22.5475 27.51Z" fill="#A76962"/>
<path d="M35.6503 35.5547C32.2698 36.1869 23.8579 32.8064 21.9351 26.1438C21.5312 24.7557 21.3163 23.3195 21.2964 21.874C21.2964 21.5906 21.2964 21.3089 21.3095 21.0305C21.5191 16.3889 23.894 12.5138 27.6462 11.4247C27.8624 11.3624 28.0803 11.31 28.3014 11.2609C29.6137 11.0164 30.9667 11.1111 32.2321 11.536C33.864 12.094 35.341 13.0295 36.5429 14.2663C37.05 14.775 37.5166 15.3226 37.9383 15.9041C39.0123 17.3937 39.8182 19.0592 40.3197 20.8258C42.2556 27.4983 38.1742 35.0847 35.6503 35.5547Z" fill="#E18477"/>
<path d="M34.9378 21.111C34.9835 21.7477 35.0932 22.3781 35.2654 22.9928C35.4291 23.5349 35.6781 23.8707 36.0057 24.3391C36.1193 24.4928 36.2175 24.6574 36.2988 24.8305C36.7329 25.8033 36.158 26.8827 35.0639 26.8827H34.394" stroke="#00214E" stroke-width="0.163782" stroke-miterlimit="10"/>
<path d="M31.9931 25.6246C31.8748 25.6852 31.782 25.7861 31.7316 25.9091C31.6811 26.032 31.6764 26.169 31.7181 26.2952C31.7598 26.4214 31.8453 26.5285 31.9591 26.5971C32.073 26.6658 32.2076 26.6915 32.3387 26.6696" stroke="#00214E" stroke-width="0.163782" stroke-miterlimit="10"/>
<path d="M35.7129 19.1003C36.8701 18.511 38.2082 18.3845 39.4553 18.7465" stroke="#00214E" stroke-width="0.163782" stroke-miterlimit="10"/>
<path d="M27.1191 19.5736C27.9073 19.1722 28.7743 18.9495 29.6583 18.9212C30.5424 18.8929 31.4218 19.0597 32.2341 19.4098" stroke="#00214E" stroke-width="0.163782" stroke-miterlimit="10"/>
<path d="M34.4288 10.5945C32.804 10.2784 30.855 10.3341 29.2614 10.3537C28.3917 10.3636 27.5106 10.4193 26.6819 10.6813C24.3889 11.42 22.8968 13.6294 21.9666 15.8568C21.7291 16.4251 19.274 22.0806 19.328 22.092C20.9003 22.603 22.584 21.8922 24.0597 21.1503C28.4392 18.9441 33.0874 15.3982 34.9709 10.7108C34.7956 10.6715 34.6138 10.6305 34.4288 10.5945Z" fill="#00214E"/>
<path d="M30.2999 28.2613C30.3223 28.2259 30.3517 28.1955 30.3864 28.172C30.4211 28.1485 30.4603 28.1324 30.5015 28.1247C30.5427 28.117 30.585 28.1179 30.6259 28.1273C30.6667 28.1367 30.7051 28.1545 30.7388 28.1794C31.0795 28.4186 31.7019 28.9263 32.5863 29.1032C33.7917 29.3423 34.8383 28.8608 35.0872 29.1703C35.2281 29.3456 35.0561 29.5601 34.7269 29.8336C34.3822 30.0918 33.9892 30.2783 33.5712 30.3821C33.1531 30.4859 32.7186 30.5049 32.2931 30.438C31.1335 30.2202 30.2622 28.8772 30.2622 28.4022C30.2622 28.3527 30.2752 28.3042 30.2999 28.2613Z" fill="white"/>
<path d="M29.3839 21.4359C30.3829 21.4441 30.3829 22.9706 29.3839 22.9787H29.3396C28.3406 22.9706 28.3406 21.4441 29.3396 21.4359H29.3839Z" fill="#00214E"/>
<path d="M37.6158 21.3309C38.5445 21.3309 38.5445 22.7558 37.6158 22.7624H37.5749C36.6463 22.7624 36.6463 21.3375 37.5749 21.3309H37.6158Z" fill="#00214E"/>
</svg>
