<svg width="60" height="60" viewBox="0 0 60 60" fill="none" xmlns="http://www.w3.org/2000/svg">
<path d="M42.3182 24.5133C42.251 19.0774 41.2814 13.1157 36.3712 9.91213C31.9376 7.01973 25.9301 7.16058 21.5293 9.99074C20.9369 10.3695 20.3771 10.7968 19.8554 11.2682C17.934 13.0384 16.4408 15.2228 15.489 17.6558C14.3749 20.4771 13.8725 23.5028 14.0149 26.5328C14.2885 32.6156 13.6284 38.7165 13.6284 44.824C13.6284 45.0352 13.6284 45.2776 13.7922 45.4119C13.9384 45.5037 14.1135 45.5381 14.2835 45.5086C16.8418 45.3661 19.1069 44.9239 21.5768 44.5128C24.6559 44.0018 27.9757 44.1475 31.0925 43.9526C32.9482 43.8445 34.8988 43.5448 36.7545 43.6251C37.3457 43.6513 42.5229 44.4194 42.5458 44.7388C42.0512 37.9648 42.4017 31.2824 42.3182 24.5133ZM24.2399 23.8287L21.9322 22.1909C23.7879 21.5617 25.5482 20.6799 27.1634 19.5704C28.6259 18.6021 29.8491 17.314 30.7404 15.8034L31.6756 16.3946L24.2399 23.8287Z" fill="#00214E"/>
<path d="M48.547 45.9197C43.2248 50.0177 36.6893 52.2262 29.9722 52.1965C23.2552 52.1668 16.7394 49.9007 11.4536 45.7559L19.4233 42.02C19.6672 41.9047 19.905 41.7768 20.1357 41.6368L20.3191 41.5221C20.3847 41.4812 20.4485 41.4386 20.5124 41.3944C21.5179 40.7007 22.3419 39.7756 22.9151 38.6969C23.5702 37.4603 23.7864 36.0944 23.7962 34.7023C23.7962 33.9374 23.7651 33.1725 23.7455 32.4093C23.7455 32.2379 23.7422 32.0659 23.7356 31.8934C23.7291 31.3747 23.7236 30.8556 23.7193 30.3358H23.7307L24.0436 30.4996L24.8952 30.9402L29.8562 31.7837L34.9531 32.6517L35.0694 36.5825L35.1021 37.7093V37.8845L35.1791 40.4838L37.0577 41.2486L38.5317 41.8448L48.547 45.9197Z" fill="#F2A196"/>
<path d="M35.0692 36.5841C34.7162 36.8258 34.2946 36.947 33.8671 36.9296C31.4464 36.6692 26.7196 34.771 23.7486 31.2579C23.7486 31.0864 23.7453 30.9145 23.7388 30.7419V30.3374L24.0516 30.5012L24.9033 30.9418L29.8642 31.7852L34.9611 32.6533L35.0692 36.5841Z" fill="#E88870"/>
<path d="M19.6246 27.8741C21.1624 27.8741 22.4089 26.6276 22.4089 25.0898C22.4089 23.5521 21.1624 22.3055 19.6246 22.3055C18.0869 22.3055 16.8403 23.5521 16.8403 25.0898C16.8403 26.6276 18.0869 27.8741 19.6246 27.8741Z" fill="#F2A196"/>
<path d="M20.6071 27.5465C22.1448 27.5465 23.3914 26.2999 23.3914 24.7622C23.3914 23.2245 22.1448 21.9779 20.6071 21.9779C19.0693 21.9779 17.8228 23.2245 17.8228 24.7622C17.8228 26.2999 19.0693 27.5465 20.6071 27.5465Z" fill="#E88870"/>
<path d="M38.5482 20.8741C40.471 27.5368 36.3863 35.5932 33.8738 35.5932C30.4344 35.5932 22.0815 32.845 20.1604 26.1823C18.2392 19.5196 20.8007 12.929 25.878 11.4648C30.9552 10.0006 36.6254 14.2098 38.5482 20.8741Z" fill="#F2A196"/>
<path d="M29.0405 28.9681C29.8271 29.8474 30.9061 30.4114 32.0771 30.5552" stroke="#00214E" stroke-width="0.194894" stroke-miterlimit="10"/>
<path d="M32.4176 21.5751C32.4094 21.6078 33.2021 22.9771 33.6149 24.456C33.8065 25.2471 33.8957 26.0596 33.8802 26.8734H31.6675" stroke="#00214E" stroke-width="0.194894" stroke-miterlimit="10"/>
<path d="M34.4502 20.1813C35.6073 19.5918 36.9455 19.4653 38.1926 19.8275" stroke="#00214E" stroke-width="0.194894" stroke-miterlimit="10"/>
<path d="M24.7622 20.8331C25.5504 20.4317 26.4173 20.2089 27.3014 20.1806C28.1855 20.1523 29.0649 20.3192 29.8771 20.6694" stroke="#00214E" stroke-width="0.194894" stroke-miterlimit="10"/>
<path d="M27.6353 22.2842C28.6344 22.2924 28.6344 23.8205 27.6353 23.827H27.5911C26.592 23.827 26.592 22.2924 27.5911 22.2842H27.6353Z" fill="#00214E"/>
<path d="M35.8453 22.0565C36.7724 22.0565 36.7724 23.4814 35.8453 23.488H35.8044C34.8757 23.488 34.8757 22.0631 35.8044 22.0565H35.8453Z" fill="#00214E"/>
<path d="M32.5812 9.71557C32.505 10.4869 32.3808 11.2527 32.2094 12.0085C31.9164 13.3423 31.4192 14.6229 30.7354 15.805C29.844 17.3156 28.6209 18.6037 27.1584 19.572C25.5432 20.6815 23.7829 21.5633 21.9272 22.1925C20.4575 22.6917 18.9547 23.0874 17.4297 23.3766C17.4805 22.127 17.4297 20.5809 17.5836 19.1298C17.6983 18.0881 17.9276 17.094 18.3895 16.2931C19.6426 14.1739 21.4706 12.4533 23.6616 11.3305L23.6813 11.3206C26.1036 10.0743 29.8559 8.84424 32.5812 9.71557Z" fill="#00214E"/>
<path d="M48.547 45.9197C43.2248 50.0176 36.6893 52.2262 29.9722 52.1965C23.2552 52.1668 16.7394 49.9007 11.4536 45.7559L19.4233 42.02C19.8028 41.8416 20.1671 41.6324 20.5124 41.3944C20.6172 41.3223 20.7221 41.247 20.822 41.1684C21.6893 40.5047 22.4033 39.6617 22.9151 38.6969C23.302 37.9556 23.5591 37.1534 23.675 36.3253C23.7907 36.4374 23.9121 36.5435 24.0386 36.6431C25.0428 37.3862 26.1327 38.006 27.2848 38.4889C27.8441 38.7222 28.4161 38.924 28.998 39.0932C30.7511 39.6044 32.5815 39.798 34.4028 39.6648C34.655 39.6452 34.9089 39.6206 35.1611 39.6026L35.1857 40.4346V40.4887L37.1674 41.2945L48.547 45.9197Z" fill="#F2D4CF"/>
<path d="M30.7325 15.8115C29.8411 17.3221 28.618 18.6103 27.1555 19.5785C25.5403 20.688 23.78 21.5698 21.9243 22.1991L17.5808 19.1363L15.4893 17.6623C16.4411 15.2293 17.9343 13.045 19.8557 11.2748C20.3771 10.8011 20.937 10.3716 21.5295 9.99072L23.6587 11.337L30.7325 15.8115Z" fill="url(#paint0_linear)"/>
<defs>
<linearGradient id="paint0_linear" x1="17.9951" y1="23.0753" x2="27.2832" y2="10.713" gradientUnits="userSpaceOnUse">
<stop offset="0.29" stop-color="#00214E"/>
<stop offset="0.51" stop-color="#6878B1"/>
<stop offset="0.79" stop-color="#00214E"/>
</linearGradient>
</defs>
</svg>
