<svg width="60" height="60" viewBox="0 0 60 60" fill="none" xmlns="http://www.w3.org/2000/svg">
<path d="M42.0806 22.2508C41.6842 23.4301 41.6203 25.0351 40.9243 26.0801C39.3929 28.373 36.4219 28.7661 34.0045 29.5916C33.8448 29.6215 33.6896 29.6716 33.5426 29.7406L32.6877 30.0108C31.8655 30.2696 31.0466 30.5317 30.2309 30.797C29.0975 31.1655 27.54 31.3915 26.7243 32.3218C26.2544 32.8593 25.8169 33.4242 25.4141 34.0137C25.3355 34.13 25.2388 34.2577 25.0996 34.2692C25.0112 34.2692 24.9358 34.1529 24.8621 34.1054C23.4077 33.3225 22.3382 32.2481 21.4424 30.8854C18.7379 26.7099 17.6328 21.698 18.3305 16.7723C18.3403 16.7002 18.3502 16.6298 18.3616 16.5578C18.6366 14.9641 19.363 13.4827 20.4548 12.2896C21.5588 11.0908 22.8607 10.0908 24.3036 9.33332C25.1621 8.87941 26.047 8.47742 26.9536 8.12952C28.9212 7.35281 31.0102 6.92869 33.125 6.87659C35.1334 6.87843 37.1222 7.27175 38.9802 8.03453C41.5384 9.05817 43.5218 10.9695 43.6873 13.8619C43.8511 16.7134 42.9863 19.555 42.0806 22.2508Z" fill="#00214E"/>
<path d="M22.0826 29.456C23.6204 29.456 24.8669 28.2095 24.8669 26.6718C24.8669 25.134 23.6204 23.8875 22.0826 23.8875C20.5449 23.8875 19.2983 25.134 19.2983 26.6718C19.2983 28.2095 20.5449 29.456 22.0826 29.456Z" fill="#F2A196"/>
<path d="M23.0409 29.1285C24.4882 29.1285 25.6614 27.9552 25.6614 26.508C25.6614 25.0607 24.4882 23.8875 23.0409 23.8875C21.5937 23.8875 20.4204 25.0607 20.4204 26.508C20.4204 27.9552 21.5937 29.1285 23.0409 29.1285Z" fill="#E88870"/>
<path d="M48.5465 46.8434C43.2243 50.9414 36.6888 53.1499 29.9718 53.1202C23.2547 53.0905 16.7389 50.8244 11.4531 46.6796L19.4228 42.9437C19.8023 42.7653 20.1666 42.5561 20.5119 42.3181L20.6937 42.1903L20.8215 42.0921C21.6888 41.4284 22.4028 40.5854 22.9146 39.6206C23.5697 38.384 23.7859 37.0181 23.7958 35.6259C23.7958 35.1559 23.7859 34.6858 23.7712 34.2158C23.7564 33.7457 23.7401 33.2822 23.7352 32.8138C23.7286 32.2941 23.7231 31.7749 23.7188 31.2562L24.0201 31.4118L24.0431 31.4233L24.8947 31.8639L25.2895 31.931L29.8557 32.7073L31.6655 33.0152L34.9526 33.577L35.1066 38.8181L35.1704 40.9964L35.1819 41.3632V41.4173L37.1637 42.2231L37.2865 42.2739L48.5465 46.8434Z" fill="#F2A196"/>
<path d="M23.7714 33.192L29.1533 38.2398C30.8108 39.6966 32.9718 40.4483 35.1756 40.3345L35.1117 38.1562L34.9578 32.9152L31.6707 32.3551C31.2219 32.5582 30.7731 32.7612 30.3244 32.9381C28.9814 33.4671 27.4631 33.2657 26.161 32.7154C25.1909 32.2853 24.3509 31.6074 23.7256 30.75L23.7714 33.192Z" fill="#E88870"/>
<path d="M48.5465 46.8406C43.2243 50.9385 36.6888 53.147 29.9718 53.1174C23.2547 53.0877 16.7389 50.8216 11.4531 46.6768L19.4228 42.9409C19.8023 42.7625 20.1666 42.5532 20.5119 42.3152L20.6937 42.1875C24.6835 44.9079 29.9998 46.5539 34.6152 44.4805C35.6983 44.0124 36.625 43.2447 37.2865 42.2678L48.5465 46.8406Z" fill="#845161"/>
<path d="M41.6756 28.0539C41.6066 29.2498 41.4139 30.4354 41.1008 31.5916C40.3949 34.3628 39.2255 37.1029 38.644 38.1281C38.2084 38.893 37.6007 39.0404 36.6393 39.2746C35.4477 39.5474 34.211 39.5577 33.015 39.3048C31.819 39.052 30.6923 38.5421 29.713 37.8104L23.748 33.4079C23.6645 32.589 23.5237 31.7292 23.3664 30.8529C22.9111 28.3078 22.3215 25.6119 22.577 23.2305C22.66 22.5534 22.9887 21.9304 23.5007 21.4797C24.8732 20.1792 27.4315 19.5896 29.0267 19.1867C31.4212 18.5709 33.8812 18.204 36.2414 17.4785C37.9791 16.938 39.8544 16.1158 40.896 14.55C40.896 14.55 41.0762 16.3205 41.1172 16.7251C41.204 17.5587 41.2023 18.2826 41.2924 19.1048C41.3814 20.0059 41.3261 20.9154 41.1286 21.7991C40.9927 22.41 40.8322 23.0192 40.7175 23.6351C40.6078 24.2247 40.7634 24.2345 41.0664 24.6521C41.6888 25.5038 41.7133 27.0434 41.6756 28.0539Z" fill="#F2A196"/>
<path d="M30.7193 23.4235C31.7184 23.4235 31.7184 24.9597 30.7193 24.9679H30.6751C29.676 24.9679 29.676 23.4317 30.6751 23.4235H30.7193Z" fill="#00214E"/>
<path d="M38.9293 23.1937C39.8563 23.2019 39.8563 24.6186 38.9293 24.6268H38.8884C37.9597 24.6268 37.9597 23.2019 38.8884 23.1937H38.9293Z" fill="#00214E"/>
<path d="M35.9332 24.075C35.925 24.1077 36.7177 25.4769 37.1305 26.9559C37.322 27.7465 37.4112 28.5584 37.3958 29.3717H35.1831" stroke="#00214E" stroke-width="0.163782" stroke-miterlimit="10"/>
<path d="M41.1094 31.5963C40.4035 34.3675 39.2341 37.1076 38.6527 38.1328C38.217 38.8977 37.6094 39.0451 36.648 39.2793C35.4564 39.5521 34.2197 39.5624 33.0237 39.3095C31.8277 39.0567 30.7009 38.5468 29.7216 37.8151L23.7485 33.4126C23.6502 32.448 23.2981 31.5242 23.0934 30.5743C23.0049 30.1452 22.9296 29.6964 23.0344 29.264C23.0631 29.4915 23.1608 29.7048 23.3145 29.8749C24.0875 30.9264 24.9916 32.1139 26.2789 32.5462C27.622 32.9966 29.1517 33.0671 30.4472 32.4316C31.5757 31.878 32.6812 31.1557 33.8588 30.7004C34.642 30.377 35.4872 30.231 36.3335 30.2729C37.5357 30.3548 38.05 30.8969 38.9295 31.6127C39.2177 31.8485 39.5404 32.0942 39.9122 32.0958C40.338 32.1024 40.7475 31.8665 41.1094 31.5963Z" fill="#00214E"/>
<path d="M33.4722 32.481C34.5991 32.8307 35.8146 32.7603 36.8936 32.2828" stroke="#F2A196" stroke-width="0.163782" stroke-miterlimit="10"/>
<path d="M28.251 22.1085C29.767 21.7941 31.3267 21.7497 32.8582 21.9774" stroke="#00214E" stroke-width="0.163782" stroke-miterlimit="10"/>
<path d="M37.9219 22.134C38.8587 21.9176 39.8238 21.8507 40.7815 21.9358" stroke="#00214E" stroke-width="0.163782" stroke-miterlimit="10"/>
<path d="M33.3285 28.5515C33.2102 28.6121 33.1175 28.713 33.067 28.8359C33.0166 28.9589 33.0118 29.0959 33.0536 29.2221C33.0953 29.3483 33.1808 29.4554 33.2946 29.524C33.4084 29.5927 33.543 29.6184 33.6741 29.5964" stroke="#00214E" stroke-width="0.163782" stroke-miterlimit="10"/>
<path d="M23.2026 30.863L23.3664 30.8531L23.4745 30.9809L23.8266 33.2444L23.748 33.2739L23.6301 33.1117L23.2026 30.863Z" fill="#00214E"/>
</svg>
