<svg width="60" height="60" viewBox="0 0 60 60" fill="none" xmlns="http://www.w3.org/2000/svg">
<path d="M48.547 46.1866C43.2248 50.2846 36.6893 52.4931 29.9722 52.4634C23.2552 52.4337 16.7394 50.1676 11.4536 46.0228L19.4233 42.2869C19.8028 42.1085 20.1671 41.8993 20.5124 41.6613C20.6172 41.5892 20.7221 41.5139 20.822 41.4353C21.6893 40.7716 22.4033 39.9286 22.9151 38.9638C23.302 38.2225 23.5591 37.4203 23.675 36.5922C23.755 36.0549 23.7955 35.5124 23.7962 34.9691C23.7962 34.0323 23.7455 33.0955 23.7356 32.157C23.7291 31.6373 23.7236 31.1181 23.7193 30.5994L24.0468 30.7632L24.8985 31.2038L25.2932 31.2709L29.8595 32.0473L34.9564 32.9153L35.1103 38.1563L35.1611 39.8695L35.1857 40.7015V40.7556L37.1674 41.5614L48.547 46.1866Z" fill="#DE8276"/>
<path d="M35.1527 40.4296C34.5898 40.5265 34.0107 40.4368 33.5035 40.1741L23.7306 32.1848C23.7191 31.8147 23.7093 32.2029 23.7044 31.8327C23.6978 31.313 23.6924 30.7938 23.688 30.2751L24.0156 30.4389L24.8672 30.8795L25.2619 30.9467L29.8282 31.723L34.9251 32.591L35.079 37.8321L35.1298 39.5452L35.1544 40.3772V40.4313L35.1527 40.4296Z" fill="#A76962"/>
<path d="M40.1971 26.1888C39.9424 26.4551 39.6633 26.697 39.3634 26.9111C37.6601 28.1444 35.3868 28.5489 33.4443 29.2139C32.6254 29.4939 23.7451 32.0178 23.7451 32.5665C23.7451 32.4469 22.8755 31.5838 21.7798 30.5356C19.9308 28.7648 18.6419 26.4906 18.0725 23.9946C17.503 21.4986 17.6782 18.8904 18.5762 16.4929C20.363 11.7973 26.0594 8.56092 30.8304 7.81244C33.102 7.45703 35.7979 7.25886 37.8959 8.34801C38.9687 8.9065 39.8613 9.7205 40.6802 10.6229C40.9357 10.9079 41.1836 11.1989 41.4238 11.4959C41.527 11.6204 41.6285 11.7449 41.7284 11.871C45.4578 16.5551 44.136 22.05 40.1971 26.1888Z" fill="url(#paint0_linear)"/>
<path d="M40.1971 26.1888C39.9424 26.4552 39.6633 26.697 39.3634 26.9111C39.2935 26.7892 39.2306 26.6635 39.1751 26.5344C38.7427 25.5517 38.5199 24.4855 38.3562 23.4225C38.1011 21.8756 37.9267 20.3165 37.8337 18.7515C37.6846 16.2391 36.6119 14.9927 38.746 13.0338C39.514 12.33 40.4285 11.8053 41.4238 11.4976C41.527 11.622 41.6285 11.7465 41.7284 11.8726C45.4578 16.5552 44.136 22.0501 40.1971 26.1888Z" fill="url(#paint1_linear)"/>
<path d="M22.1075 28.8011C23.6453 28.8011 24.8918 27.5546 24.8918 26.0168C24.8918 24.4791 23.6453 23.2325 22.1075 23.2325C20.5698 23.2325 19.3232 24.4791 19.3232 26.0168C19.3232 27.5546 20.5698 28.8011 22.1075 28.8011Z" fill="#E18477"/>
<path d="M22.9918 28.5096C24.3685 28.5096 25.4846 27.3935 25.4846 26.0168C25.4846 24.6401 24.3685 23.524 22.9918 23.524C21.6151 23.524 20.499 24.6401 20.499 26.0168C20.499 27.3935 21.6151 28.5096 22.9918 28.5096Z" fill="#A76962"/>
<path d="M23.2002 23.3766C23.3361 25.1553 23.3312 27.3271 23.3787 27.9625C23.5021 29.5556 23.6244 31.1481 23.7456 32.7401L34.6273 39.0965C35.381 39.3782 36.2127 39.369 36.96 39.0708C37.7074 38.7725 38.3168 38.2065 38.6694 37.4832C40.2352 34.2763 42.7476 29.2122 42.4168 27.3287C41.9254 24.5444 40.6152 23.5617 40.6152 23.5617L41.1606 20.2959C41.7125 16.976 40.5742 13.833 36.6959 13.4694C35.8769 13.3941 34.9647 13.5497 34.4782 14.2032C33.168 15.9655 33.923 18.134 31.956 19.7718C29.568 21.7421 24.2402 22.6019 22.9922 21.0116C22.9922 21.0116 23.1068 22.1368 23.2002 23.3766Z" fill="#DE8276"/>
<path d="M31.3662 30.3243C32.1532 31.2032 33.2319 31.767 34.4027 31.9114" stroke="#00214E" stroke-width="0.163782" stroke-miterlimit="10"/>
<path d="M35.2345 22.5922C35.2214 22.6495 37.4226 28.5096 37.4226 28.5096L34.4844 28.6521" stroke="#00214E" stroke-width="0.163782" stroke-miterlimit="10"/>
<path d="M28.2769 21.4555C29.793 21.1419 31.3525 21.0975 32.8841 21.3244" stroke="#00214E" stroke-width="0.163782" stroke-miterlimit="10"/>
<path d="M37.9482 21.4768C38.8842 21.2587 39.8491 21.1918 40.8062 21.2786" stroke="#00214E" stroke-width="0.163782" stroke-miterlimit="10"/>
<path d="M48.547 46.1866C43.2248 50.2846 36.6893 52.4931 29.9722 52.4634C23.2552 52.4337 16.7394 50.1676 11.4536 46.0228L19.4233 42.2869C19.8028 42.1085 20.1671 41.8993 20.5124 41.6613C20.6172 41.5892 20.7221 41.5139 20.822 41.4353C21.6893 40.7716 22.4033 39.9286 22.9151 38.9638C23.302 38.2225 23.5591 37.4204 23.675 36.5922C23.7907 36.7043 23.9121 36.8104 24.0386 36.91C25.0429 37.6526 26.1328 38.2717 27.2848 38.7541C27.8441 38.9875 28.4161 39.1892 28.998 39.3585C30.7511 39.8697 32.5815 40.0633 34.4028 39.9301C34.655 39.9105 34.9089 39.8859 35.1611 39.8679L35.1857 40.6999V40.7539L37.1674 41.5597L48.547 46.1866Z" fill="#00214E"/>
<path d="M30.5093 23.2964C31.5084 23.2964 31.5084 24.8327 30.5093 24.8409H30.4634C29.4627 24.8409 29.4627 23.3046 30.4634 23.2964H30.5076H30.5093Z" fill="#00214E"/>
<path d="M38.7198 23.0687C39.6468 23.0769 39.6468 24.4936 38.7198 24.5018H38.6772C37.7502 24.5018 37.7502 23.0769 38.6772 23.0687H38.7198Z" fill="#00214E"/>
<defs>
<linearGradient id="paint0_linear" x1="17.7343" y1="20.0503" x2="43.9362" y2="20.0503" gradientUnits="userSpaceOnUse">
<stop stop-color="#16243F"/>
<stop offset="1" stop-color="#6878B1"/>
</linearGradient>
<linearGradient id="paint1_linear" x1="1463.49" y1="1135.45" x2="2254.71" y2="1667.48" gradientUnits="userSpaceOnUse">
<stop stop-color="#16243F"/>
<stop offset="1" stop-color="#6878B1"/>
</linearGradient>
</defs>
</svg>
