<svg width="60" height="60" viewBox="0 0 60 60" fill="none" xmlns="http://www.w3.org/2000/svg">
<path d="M38.0839 32.4875C29.2665 33.6409 20.3115 33.141 11.6772 31.0135C12.9004 25.4086 14.7908 19.9705 17.3081 14.8154C19.4798 10.3671 24.0051 8.08724 28.8842 7.70072C32.8985 7.38462 36.6868 9.07321 38.7521 12.511C40.3457 15.1659 41.3382 18.7216 41.9884 21.7401C42.6829 24.9677 43.3123 28.203 43.8768 31.4459C43.8687 31.4 38.6522 32.4138 38.0839 32.4875Z" fill="url(#paint0_linear)"/>
<path d="M48.5465 46.0529C43.2243 50.1509 36.6888 52.3594 29.9718 52.3297C23.2547 52.3001 16.7389 50.0339 11.4531 45.8891L19.4228 42.1533C19.6667 42.0379 19.9045 41.91 20.1352 41.77L20.3187 41.6554C20.3842 41.6144 20.448 41.5718 20.5119 41.5276C21.5174 40.834 22.3414 39.9088 22.9146 38.8301C23.5697 37.5936 23.7859 36.2276 23.7958 34.8355C23.7958 33.8986 23.745 32.9618 23.7352 32.0233C23.7286 31.5036 23.7231 30.9844 23.7188 30.4658L24.0463 30.6295L24.898 31.0701L29.859 31.9136L34.9559 32.7816L35.1098 38.0227L35.1868 40.6219L37.0654 41.3868L38.5394 41.9829L48.5465 46.0529Z" fill="#E18477"/>
<path d="M35.106 38.0201C33.4583 38.3127 31.7632 38.1802 30.181 37.6352C26.6466 36.4478 24.2669 33.5833 24.0425 30.6319L24.8941 31.0725L29.8551 31.9159L34.952 32.784L35.106 38.0201Z" fill="#A76962"/>
<path d="M18.9689 28.0093C20.5066 28.0093 21.7532 26.7627 21.7532 25.225C21.7532 23.6872 20.5066 22.4407 18.9689 22.4407C17.4311 22.4407 16.1846 23.6872 16.1846 25.225C16.1846 26.7627 17.4311 28.0093 18.9689 28.0093Z" fill="#E18477"/>
<path d="M19.9513 27.6799C21.489 27.6799 22.7356 26.4334 22.7356 24.8956C22.7356 23.3579 21.489 22.1113 19.9513 22.1113C18.4136 22.1113 17.167 23.3579 17.167 24.8956C17.167 26.4334 18.4136 27.6799 19.9513 27.6799Z" fill="#A76962"/>
<path d="M39.0998 20.8394C41.1405 27.9049 37.1688 36.112 34.1437 36.4478C26.8341 37.2667 21.6406 33.5341 19.6015 26.4685C17.5624 19.403 20.273 12.4128 25.6614 10.8585C31.0499 9.30417 37.0607 13.7721 39.0998 20.8394Z" fill="#E18477"/>
<path d="M28.9106 29.733C29.7322 30.5802 30.8333 31.1005 32.0094 31.1972" stroke="#00214E" stroke-width="0.163782" stroke-miterlimit="10"/>
<path d="M33.0984 11.6886C33.0348 11.9999 32.9427 12.3048 32.8233 12.5992C31.5851 15.6358 29.677 18.2546 26.9025 20.0677C23.6269 22.2133 20.4119 22.1101 16.748 22.6276C16.9593 21.2879 16.8873 20.2528 16.9331 18.8492C17.0035 16.6529 18.0468 15.5735 19.4374 13.9701C20.4725 12.7745 21.8695 10.9565 23.4926 10.5618L33.0018 8.29504C33.1066 9.93123 33.4227 10.1343 33.0984 11.6886Z" fill="url(#paint1_linear)"/>
<path d="M34.3706 19.9811C35.5273 19.39 36.8661 19.2634 38.113 19.6273" stroke="#00214E" stroke-width="0.163782" stroke-miterlimit="10"/>
<path d="M25.3452 20.5805C26.1334 20.1791 27.0003 19.9563 27.8844 19.9279C28.7685 19.8996 29.6479 20.0665 30.4601 20.4167" stroke="#00214E" stroke-width="0.163782" stroke-miterlimit="10"/>
<path d="M48.5465 46.053C43.2243 50.151 36.6888 52.3595 29.9718 52.3299C23.2547 52.3002 16.7389 50.0341 11.4531 45.8893L19.4228 42.1534C19.8023 41.975 20.1666 41.7657 20.5119 41.5277C20.6167 41.4557 20.7216 41.3803 20.8215 41.3017C21.6888 40.6381 22.4028 39.795 22.9146 38.8302C23.3015 38.0889 23.5586 37.2868 23.6746 36.4587C23.7902 36.5708 23.9116 36.6768 24.0382 36.7764C25.0424 37.519 26.1323 38.1382 27.2843 38.6206C27.8436 38.8539 28.4156 39.0557 28.9975 39.225C30.7479 39.7357 32.5755 39.9299 34.3941 39.7982C34.6463 39.7785 34.9002 39.754 35.1524 39.736L35.177 40.568V40.6171L37.1588 41.4229L48.5465 46.053Z" fill="#845161"/>
<path d="M26.4243 29.8498C26.6286 29.5079 26.8807 29.1969 27.1728 28.9261C27.7742 28.3735 28.5293 28.0165 29.338 27.9025" stroke="#00214E" stroke-width="0.163782" stroke-miterlimit="10"/>
<path d="M30.6372 16.8335H34.5139" stroke="#00214E" stroke-width="0.163782" stroke-miterlimit="10"/>
<path d="M29.6914 18.1121H34.5132" stroke="#00214E" stroke-width="0.163782" stroke-miterlimit="10"/>
<path d="M27.7246 25.2029C27.9512 25.217 28.1783 25.1856 28.3926 25.1103C28.6068 25.0351 28.8037 24.9176 28.9717 24.7649C29.1397 24.6122 29.2754 24.4273 29.3706 24.2212C29.4659 24.0151 29.5188 23.792 29.5262 23.5651" stroke="#00214E" stroke-width="0.163782" stroke-miterlimit="10"/>
<path d="M34.9087 23.2061C34.9139 23.4191 34.9648 23.6286 35.0581 23.8202C35.1513 24.0118 35.2847 24.1811 35.4492 24.3166C35.7801 24.584 36.148 24.8019 36.5416 24.9635" stroke="#00214E" stroke-width="0.163782" stroke-miterlimit="10"/>
<path d="M34.4645 26.8109C34.5418 26.9327 34.6129 27.0585 34.6774 27.1876C34.7506 27.3099 34.8 27.4449 34.8232 27.5855C34.8256 27.6359 34.8167 27.6862 34.7971 27.7326C34.7776 27.7791 34.7478 27.8206 34.7101 27.8541C34.6724 27.8875 34.6277 27.9121 34.5792 27.926C34.5308 27.9399 34.4798 27.9428 34.4301 27.9344C34.3269 27.9115 34.2827 28.0703 34.3859 28.0982C34.4514 28.1113 34.5188 28.1112 34.5844 28.0981C34.6499 28.085 34.7121 28.059 34.7675 28.0217C34.823 27.9844 34.8705 27.9365 34.9073 27.8808C34.9441 27.825 34.9695 27.7625 34.982 27.6969C34.9928 27.5286 34.9529 27.3608 34.8674 27.2154C34.7908 27.0498 34.7032 26.8895 34.6053 26.7355C34.5497 26.6454 34.4072 26.7355 34.4645 26.8174V26.8109Z" fill="#00214E"/>
<path d="M31.7274 27.0027C31.5866 27.2255 31.4228 27.5039 31.5014 27.7774C31.5669 28.0002 31.8028 28.2065 32.0435 28.1197C32.1434 28.0837 32.1008 27.9248 32.0009 27.9559C31.8371 28.0182 31.6734 27.8446 31.6504 27.6873C31.6144 27.4711 31.7585 27.2549 31.8683 27.0797C31.924 26.9913 31.7831 26.9077 31.7274 26.9978V27.0027Z" fill="#00214E"/>
<path d="M29.4282 23.3148C29.45 23.0198 28.8871 22.7377 28.1708 22.6847C27.4546 22.6318 26.8562 22.828 26.8344 23.1229C26.8126 23.4179 27.3756 23.7 28.0918 23.753C28.8081 23.8059 29.4064 23.6098 29.4282 23.3148Z" fill="#00214E"/>
<path d="M36.6516 23.4827C37.3612 23.3721 37.8995 23.0455 37.854 22.7532C37.8084 22.461 37.1962 22.3137 36.4866 22.4243C35.7769 22.535 35.2386 22.8616 35.2841 23.1538C35.3297 23.4461 35.9419 23.5933 36.6516 23.4827Z" fill="#00214E"/>
<defs>
<linearGradient id="paint0_linear" x1="11.6772" y1="20.3824" x2="43.8768" y2="20.3824" gradientUnits="userSpaceOnUse">
<stop stop-color="#315676"/>
<stop offset="1" stop-color="#E1B9E0"/>
</linearGradient>
<linearGradient id="paint1_linear" x1="14.2881" y1="23.1232" x2="40.1989" y2="4.20652" gradientUnits="userSpaceOnUse">
<stop stop-color="#315676"/>
<stop offset="0.21" stop-color="#516889"/>
<stop offset="0.67" stop-color="#A296BA"/>
<stop offset="1" stop-color="#E1B9E0"/>
</linearGradient>
</defs>
</svg>
