<svg width="60" height="60" viewBox="0 0 60 60" fill="none" xmlns="http://www.w3.org/2000/svg">
<path d="M48.2223 46.8024C42.9001 50.9003 36.3646 53.1088 29.6475 53.0792C22.9305 53.0495 16.4147 50.7834 11.1289 46.6386L19.0986 42.9027C19.4781 42.7243 19.8424 42.515 20.1877 42.2771C20.2925 42.205 20.3973 42.1297 20.4973 42.051C21.3646 41.3874 22.0786 40.5444 22.5904 39.5796C22.9773 38.8383 23.2344 38.0361 23.3503 37.208C23.4303 36.6707 23.4708 36.1282 23.4715 35.5849C23.4715 34.6481 23.4208 33.7113 23.4109 32.7728C23.4044 32.253 23.3989 31.7339 23.3946 31.2152L23.7221 31.379L24.5738 31.8196L24.9685 31.8867L29.5348 32.663L34.6317 33.5311L34.7856 38.7721L34.8364 40.4853L34.861 41.3173V41.3714L36.8427 42.1772L48.2223 46.8024Z" fill="#E18477"/>
<path d="M34.8544 41.1699C34.2915 41.2668 33.7123 41.177 33.2051 40.9144L23.4322 32.9202C23.4208 32.5501 23.4109 32.9382 23.406 32.5681C23.3995 32.0494 23.394 31.5302 23.3896 31.0105L23.7172 31.1743L24.5689 31.6149L24.9636 31.682L29.5298 32.4583L34.6268 33.3264L34.7807 38.5674L34.8315 40.2806L34.856 41.1126V41.1666L34.8544 41.1699Z" fill="#A76962"/>
<path d="M42.1628 14.6146C44.9727 16.2063 47.1857 18.6724 48.4651 21.6376C47.3776 21.7257 46.3053 21.949 45.273 22.3025H45.2632C44.9946 22.3943 44.7282 22.4953 44.4639 22.6055L44.3002 22.676L44.0397 22.7906C43.9529 22.8283 43.8661 22.8692 43.781 22.9118C43.6958 22.9544 43.6172 22.9953 43.5238 23.0396C43.4305 23.0838 43.36 23.1264 43.27 23.1722C43.1799 23.2181 43.1209 23.2525 43.0472 23.2951C42.8703 23.3933 42.6967 23.4965 42.5264 23.603C42.4587 23.6445 42.3915 23.687 42.3249 23.7307C41.6681 24.1559 41.0514 24.6399 40.4824 25.1769C39.7634 25.8566 39.0919 26.6379 38.3532 27.3356C37.7197 27.9741 36.9777 28.4948 36.1618 28.8735C34.5829 29.5532 32.7568 29.9463 31.1173 30.5113L23.4195 33.1728C23.4195 33.0516 22.5482 32.1901 21.4542 31.1402C20.0286 29.785 18.8851 28.1611 18.0897 26.3622C17.2942 24.5632 16.8624 22.6247 16.8191 20.6582C16.5538 8.65948 30.6489 5.13161 40.24 7.70299C41.7635 8.11321 43.2123 8.76219 44.5327 9.62579C45.4072 10.1912 46.2072 10.8642 46.9141 11.6289C47.739 12.5163 48.4015 13.5419 48.8713 14.6588L48.7419 14.6359C46.5678 14.235 44.3394 14.2278 42.1628 14.6146Z" fill="url(#paint0_linear)"/>
<path d="M48.4648 21.6372C47.3773 21.7253 46.305 21.9487 45.2727 22.3022H45.2629C44.9911 22.3884 44.7243 22.4896 44.4636 22.6052L44.2999 22.6756L44.0362 22.7935C43.9494 22.8329 43.8642 22.8722 43.7774 22.9147C43.6906 22.9573 43.6136 22.9983 43.5203 23.0425C43.4269 23.0867 43.3565 23.1293 43.2664 23.1752C43.1763 23.221 43.1174 23.2554 43.0436 23.298C42.8668 23.3963 42.6932 23.4994 42.5228 23.6059L42.3214 23.7337C41.6646 24.1588 41.0478 24.6429 40.4788 25.1799C39.7598 25.8595 39.0883 26.6408 38.3496 27.3385C38.1105 27.4368 37.873 27.54 37.6356 27.6431C37.665 27.63 37.4472 24.8588 37.4538 24.5788C37.4811 23.5088 37.6033 22.4433 37.819 21.3948C38.235 19.3787 37.9697 17.5034 38.3709 15.4364C38.4557 14.9751 38.565 14.5186 38.6985 14.0689C39.3831 13.5579 40.3363 13.4006 41.1667 13.2811C43.1567 12.9944 45.2039 13.2663 47.1186 13.869C47.4352 13.9693 47.7463 14.0863 48.0505 14.2195C48.1946 14.2834 48.3355 14.3522 48.4747 14.4259C48.5974 14.5184 48.7304 14.5964 48.871 14.6585C46.6527 14.2492 44.3795 14.2342 42.156 14.6143C44.9683 16.2049 47.1837 18.6711 48.4648 21.6372Z" fill="url(#paint1_linear)"/>
<path d="M21.7833 29.4117C23.321 29.4117 24.5676 28.1652 24.5676 26.6274C24.5676 25.0897 23.321 23.8431 21.7833 23.8431C20.2456 23.8431 18.999 25.0897 18.999 26.6274C18.999 28.1652 20.2456 29.4117 21.7833 29.4117Z" fill="#E18477"/>
<path d="M22.6661 29.1204C24.0428 29.1204 25.1589 28.0043 25.1589 26.6276C25.1589 25.2509 24.0428 24.1348 22.6661 24.1348C21.2894 24.1348 20.1733 25.2509 20.1733 26.6276C20.1733 28.0043 21.2894 29.1204 22.6661 29.1204Z" fill="#A76962"/>
<path d="M22.7036 24.0006L23.421 33.3362L34.3027 39.6942C35.0566 39.9755 35.8883 39.9659 36.6356 39.6673C37.3829 39.3688 37.9922 38.8027 38.3448 38.0793C39.9106 34.8725 42.423 29.81 42.0922 27.9248C41.6008 25.1405 40.2906 24.1578 40.2906 24.1578C40.4729 23.066 40.6542 21.9773 40.8343 20.892C41.0407 19.662 41.3027 18.378 40.9981 17.1414C40.6492 15.7247 39.5781 15.1187 38.697 14.059C36.3778 17.0464 32.5649 18.735 29.2353 20.4465C27.5155 21.3506 22.7036 24.0006 22.7036 24.0006Z" fill="#E18477"/>
<path d="M27.9526 22.0698C29.4693 21.7589 31.0288 21.7173 32.5598 21.9469" stroke="#00214E" stroke-width="0.163782" stroke-miterlimit="10"/>
<path d="M37.624 22.088C38.5603 21.8717 39.5249 21.8048 40.482 21.8898" stroke="#00214E" stroke-width="0.163782" stroke-miterlimit="10"/>
<path d="M33.8525 28.39C33.7341 28.4506 33.6414 28.5515 33.591 28.6744C33.5405 28.7974 33.5357 28.9344 33.5775 29.0606C33.6192 29.1868 33.7047 29.2939 33.8185 29.3625C33.9323 29.4312 34.0669 29.4569 34.198 29.4349" stroke="#00214E" stroke-width="0.163782" stroke-miterlimit="10"/>
<path d="M36.8087 26.6965C36.8087 26.6965 36.8562 27.6219 37.074 28.0559C37.1674 28.2426 37.3131 28.3999 37.4016 28.5866C37.7635 29.2958 37.1788 29.4464 36.6138 29.4464" stroke="#00214E" stroke-width="0.163782" stroke-miterlimit="10"/>
<path d="M48.2223 46.8024C42.9001 50.9003 36.3646 53.1088 29.6475 53.0792C22.9305 53.0495 16.4147 50.7834 11.1289 46.6386L19.0986 42.9027C19.4781 42.7243 19.8424 42.515 20.1877 42.2771C20.2925 42.205 20.3973 42.1297 20.4973 42.0511C21.3646 41.3874 22.0786 40.5444 22.5904 39.5796C22.9773 38.8383 23.2344 38.0361 23.3503 37.208C23.466 37.3201 23.5874 37.4261 23.7139 37.5257C24.7182 38.2684 25.808 38.8875 26.9601 39.3699C27.5194 39.6032 28.0914 39.805 28.6733 39.9743C30.4264 40.4855 32.2568 40.6791 34.0781 40.5459C34.3303 40.5262 34.5842 40.5017 34.8364 40.4837L34.861 41.3157V41.3697L36.8427 42.1755L48.2223 46.8024Z" fill="#00214E"/>
<path d="M31.379 27.6383C33.0976 27.6383 34.4908 26.245 34.4908 24.5264C34.4908 22.8078 33.0976 21.4146 31.379 21.4146C29.6603 21.4146 28.2671 22.8078 28.2671 24.5264C28.2671 26.245 29.6603 27.6383 31.379 27.6383Z" stroke="white" stroke-width="0.163782" stroke-miterlimit="10"/>
<path d="M40.0826 27.1469C41.8012 27.1469 43.1944 25.7537 43.1944 24.0351C43.1944 22.3164 41.8012 20.9232 40.0826 20.9232C38.3639 20.9232 36.9707 22.3164 36.9707 24.0351C36.9707 25.7537 38.3639 27.1469 40.0826 27.1469Z" stroke="white" stroke-width="0.163782" stroke-miterlimit="10"/>
<path d="M34.4907 24.5263L36.9704 24.3134" stroke="white" stroke-width="0.163782" stroke-miterlimit="10"/>
<path d="M31.1464 31.3201C31.1689 31.2846 31.1986 31.2542 31.2334 31.2306C31.2682 31.2071 31.3075 31.191 31.3489 31.1833C31.3902 31.1756 31.4327 31.1765 31.4736 31.186C31.5146 31.1954 31.5532 31.2132 31.587 31.2382C31.926 31.4773 32.55 31.985 33.4344 32.1603C34.6399 32.4011 35.6848 31.9179 35.9354 32.2291C36.0762 32.4043 35.9043 32.6189 35.5751 32.8924C35.23 33.1501 34.837 33.3362 34.4191 33.44C34.0012 33.5438 33.5667 33.5631 33.1413 33.4968C31.9817 33.2789 31.1104 31.9359 31.1104 31.4593C31.1106 31.4106 31.123 31.3628 31.1464 31.3201Z" fill="white"/>
<path d="M31.9433 24.5936C31.9652 24.2986 31.4022 24.0165 30.686 23.9636C29.9697 23.9106 29.3714 24.1068 29.3496 24.4017C29.3277 24.6967 29.8907 24.9788 30.6069 25.0318C31.3232 25.0847 31.9215 24.8886 31.9433 24.5936Z" fill="#00214E"/>
<path d="M39.1657 24.7607C39.8754 24.65 40.4137 24.3234 40.3681 24.0312C40.3226 23.7389 39.7104 23.5917 39.0007 23.7023C38.2911 23.8129 37.7528 24.1395 37.7983 24.4318C37.8439 24.724 38.4561 24.8713 39.1657 24.7607Z" fill="#00214E"/>
<defs>
<linearGradient id="paint0_linear" x1="23.0789" y1="26.0613" x2="47.2515" y2="5.94233" gradientUnits="userSpaceOnUse">
<stop stop-color="#16243F"/>
<stop offset="1" stop-color="#6878B1"/>
</linearGradient>
<linearGradient id="paint1_linear" x1="2648.5" y1="1816.8" x2="3444.29" y2="1816.8" gradientUnits="userSpaceOnUse">
<stop stop-color="#16243F"/>
<stop offset="1" stop-color="#6878B1"/>
</linearGradient>
</defs>
</svg>
