<svg width="113" height="21" viewBox="0 0 113 21" fill="none" xmlns="http://www.w3.org/2000/svg">
<g clip-path="url(#clip0)">
<path fill-rule="evenodd" clip-rule="evenodd" d="M8.65283 17.4985L0.168457 7.83965H5.73633L8.65283 17.4985ZM8.96191 3.51603L6.72217 7.1793H11.3672L8.96191 3.51603ZM12.0381 7.15452L9.54639 3.5H14.1533L12.0381 7.15452ZM6.10107 7.1895L8.28369 3.5H3.60498L6.10107 7.1895ZM14.8989 3.9344L12.6958 7.1793H18L14.8989 3.9344ZM3.26074 3.9344L5.57666 7.1793H0L3.26074 3.9344ZM6.55225 7.8105H11.4785L9.08789 17.3542L6.55225 7.8105ZM9.5083 17.5L17.8916 7.83965H12.3237L9.5083 17.5Z" fill="#8257DD"/>
</g>
<path d="M27.3193 15.5V5.50586H28.9531V14.0986H33.1846V15.5H27.3193ZM41.1074 15.5L40.1094 12.7246H36.2881L35.3105 15.5H33.5879L37.3271 5.46484H39.1045L42.8438 15.5H41.1074ZM39.6787 11.3164L38.7422 8.5957C38.6738 8.41341 38.5781 8.1263 38.4551 7.73438C38.3366 7.34245 38.2546 7.05534 38.209 6.87305C38.0859 7.43359 37.9059 8.04655 37.6689 8.71191L36.7666 11.3164H39.6787ZM47.6152 15.5H45.9814V6.90723H43.042V5.50586H50.5547V6.90723H47.6152V15.5ZM57.7461 15.5H52.0928V5.50586H57.7461V6.88672H53.7266V9.60742H57.4932V10.9746H53.7266V14.1123H57.7461V15.5ZM61.5469 10.1543H62.6816C63.4427 10.1543 63.9941 10.013 64.3359 9.73047C64.6777 9.44792 64.8486 9.02865 64.8486 8.47266C64.8486 7.90755 64.6641 7.50195 64.2949 7.25586C63.9258 7.00977 63.3698 6.88672 62.627 6.88672H61.5469V10.1543ZM61.5469 11.5078V15.5H59.9131V5.50586H62.7363C64.026 5.50586 64.9808 5.7474 65.6006 6.23047C66.2204 6.71354 66.5303 7.44271 66.5303 8.41797C66.5303 9.66211 65.8831 10.5485 64.5889 11.0771L67.4121 15.5H65.5527L63.1602 11.5078H61.5469ZM75.0684 15.5L74.0703 12.7246H70.249L69.2715 15.5H67.5488L71.2881 5.46484H73.0654L76.8047 15.5H75.0684ZM73.6396 11.3164L72.7031 8.5957C72.6348 8.41341 72.5391 8.1263 72.416 7.73438C72.2975 7.34245 72.2155 7.05534 72.1699 6.87305C72.0469 7.43359 71.8669 8.04655 71.6299 8.71191L70.7275 11.3164H73.6396ZM78.124 15.5V5.50586H79.7578V14.0986H83.9893V15.5H78.124ZM88.084 18.2891C87.6374 18.2891 87.2637 18.2321 86.9629 18.1182V16.7441C87.3457 16.8398 87.6784 16.8877 87.9609 16.8877C88.8542 16.8877 89.3008 16.3226 89.3008 15.1924V5.50586H90.9414V15.1377C90.9414 16.1585 90.6976 16.9378 90.21 17.4756C89.7269 18.0179 89.0182 18.2891 88.084 18.2891ZM102.405 10.4893C102.405 12.1162 101.997 13.3809 101.182 14.2832C100.37 15.1855 99.2197 15.6367 97.7295 15.6367C96.221 15.6367 95.0612 15.1901 94.25 14.2969C93.4434 13.3991 93.04 12.1253 93.04 10.4756C93.04 8.82585 93.4456 7.55892 94.2568 6.6748C95.0726 5.79069 96.2347 5.34863 97.7432 5.34863C99.2288 5.34863 100.377 5.79753 101.188 6.69531C102 7.5931 102.405 8.85775 102.405 10.4893ZM94.7764 10.4893C94.7764 11.7197 95.0247 12.654 95.5215 13.292C96.0182 13.9255 96.7542 14.2422 97.7295 14.2422C98.7002 14.2422 99.4316 13.9277 99.9238 13.2988C100.421 12.6699 100.669 11.7334 100.669 10.4893C100.669 9.26335 100.423 8.33366 99.9307 7.7002C99.443 7.06673 98.7139 6.75 97.7432 6.75C96.7633 6.75 96.0228 7.06673 95.5215 7.7002C95.0247 8.33366 94.7764 9.26335 94.7764 10.4893ZM104.552 5.50586H107.519C108.895 5.50586 109.888 5.70638 110.499 6.10742C111.114 6.50846 111.422 7.14193 111.422 8.00781C111.422 8.59115 111.271 9.0765 110.971 9.46387C110.67 9.85124 110.237 10.0951 109.672 10.1953V10.2637C110.374 10.3958 110.889 10.6579 111.217 11.0498C111.549 11.4372 111.716 11.9635 111.716 12.6289C111.716 13.5267 111.401 14.2308 110.772 14.7412C110.148 15.2471 109.278 15.5 108.161 15.5H104.552V5.50586ZM106.186 9.63477H107.758C108.441 9.63477 108.94 9.52767 109.255 9.31348C109.569 9.09473 109.727 8.72559 109.727 8.20605C109.727 7.73665 109.556 7.39714 109.214 7.1875C108.877 6.97786 108.339 6.87305 107.601 6.87305H106.186V9.63477ZM106.186 10.9609V14.126H107.922C108.605 14.126 109.12 13.9961 109.467 13.7363C109.818 13.472 109.993 13.0573 109.993 12.4922C109.993 11.9727 109.815 11.5876 109.46 11.3369C109.104 11.0863 108.564 10.9609 107.84 10.9609H106.186Z" fill="#8257DD"/>
<defs>
<clipPath id="clip0">
<rect width="18" height="14" fill="white" transform="translate(0 3.5)"/>
</clipPath>
</defs>
</svg>
