<svg width="104" height="20" viewBox="0 0 104 20" fill="none" xmlns="http://www.w3.org/2000/svg">
<path d="M3.65646 4.00768C3.61593 4.00713 3.57539 4.0086 3.53501 4.01216C3.27995 4.02997 3.03731 4.12909 2.84269 4.29491C2.64808 4.46074 2.51173 4.68458 2.45366 4.93358L0.0608818 14.4988C0.0217143 14.6516 0.0131699 14.8107 0.0357404 14.9669C0.0583109 15.123 0.11155 15.2732 0.192393 15.4087C0.273236 15.5441 0.380085 15.6623 0.506787 15.7564C0.633488 15.8504 0.777539 15.9184 0.930644 15.9566C1.08375 15.9947 1.24288 16.0021 1.39888 15.9785C1.55488 15.9549 1.70467 15.9006 1.83961 15.8188C1.97455 15.7371 2.09198 15.6294 2.18514 15.502C2.2783 15.3747 2.34535 15.2302 2.38242 15.0769L4.77519 5.5128C4.82191 5.33857 4.82861 5.15601 4.79479 4.97882C4.76097 4.80163 4.6875 4.63437 4.5799 4.4896C4.47229 4.34482 4.33332 4.22631 4.17341 4.14285C4.01349 4.05939 3.83677 4.01317 3.65646 4.00768ZM7.84059 4.00768C7.80006 4.00713 7.75953 4.0086 7.71915 4.01216C7.46409 4.02997 7.22145 4.12909 7.02683 4.29491C6.83221 4.46074 6.69586 4.68458 6.63779 4.93358L4.24502 14.4988C4.20579 14.6516 4.19719 14.8107 4.21973 14.9669C4.24226 15.1231 4.29548 15.2734 4.37632 15.4089C4.45715 15.5445 4.56401 15.6626 4.69073 15.7567C4.81746 15.8508 4.96154 15.9188 5.11468 15.957C5.26782 15.9951 5.42699 16.0026 5.58302 15.9789C5.73905 15.9553 5.88886 15.9009 6.02382 15.8191C6.15877 15.7373 6.27621 15.6296 6.36936 15.5022C6.4625 15.3748 6.52952 15.2303 6.56655 15.0769L8.95933 5.5128C9.00586 5.33864 9.01243 5.15615 8.97852 4.97909C8.94461 4.80204 8.87112 4.63493 8.76353 4.49028C8.65594 4.34563 8.51704 4.22722 8.35722 4.14381C8.19739 4.06041 8.02079 4.01417 7.84059 4.00865V4.00768Z" fill="#8559E4"/>
<path d="M18.3193 15V5.00586H19.9531V13.5986H24.1846V15H18.3193ZM32.1074 15L31.1094 12.2246H27.2881L26.3105 15H24.5879L28.3271 4.96484H30.1045L33.8438 15H32.1074ZM30.6787 10.8164L29.7422 8.0957C29.6738 7.91341 29.5781 7.6263 29.4551 7.23438C29.3366 6.84245 29.2546 6.55534 29.209 6.37305C29.0859 6.93359 28.9059 7.54655 28.6689 8.21191L27.7666 10.8164H30.6787ZM38.6152 15H36.9814V6.40723H34.042V5.00586H41.5547V6.40723H38.6152V15ZM48.7461 15H43.0928V5.00586H48.7461V6.38672H44.7266V9.10742H48.4932V10.4746H44.7266V13.6123H48.7461V15ZM52.5469 9.6543H53.6816C54.4427 9.6543 54.9941 9.51302 55.3359 9.23047C55.6777 8.94792 55.8486 8.52865 55.8486 7.97266C55.8486 7.40755 55.6641 7.00195 55.2949 6.75586C54.9258 6.50977 54.3698 6.38672 53.627 6.38672H52.5469V9.6543ZM52.5469 11.0078V15H50.9131V5.00586H53.7363C55.026 5.00586 55.9808 5.2474 56.6006 5.73047C57.2204 6.21354 57.5303 6.94271 57.5303 7.91797C57.5303 9.16211 56.8831 10.0485 55.5889 10.5771L58.4121 15H56.5527L54.1602 11.0078H52.5469ZM66.0684 15L65.0703 12.2246H61.249L60.2715 15H58.5488L62.2881 4.96484H64.0654L67.8047 15H66.0684ZM64.6396 10.8164L63.7031 8.0957C63.6348 7.91341 63.5391 7.6263 63.416 7.23438C63.2975 6.84245 63.2155 6.55534 63.1699 6.37305C63.0469 6.93359 62.8669 7.54655 62.6299 8.21191L61.7275 10.8164H64.6396ZM69.124 15V5.00586H70.7578V13.5986H74.9893V15H69.124ZM79.084 17.7891C78.6374 17.7891 78.2637 17.7321 77.9629 17.6182V16.2441C78.3457 16.3398 78.6784 16.3877 78.9609 16.3877C79.8542 16.3877 80.3008 15.8226 80.3008 14.6924V5.00586H81.9414V14.6377C81.9414 15.6585 81.6976 16.4378 81.21 16.9756C80.7269 17.5179 80.0182 17.7891 79.084 17.7891ZM93.4053 9.98926C93.4053 11.6162 92.9974 12.8809 92.1816 13.7832C91.3704 14.6855 90.2197 15.1367 88.7295 15.1367C87.221 15.1367 86.0612 14.6901 85.25 13.7969C84.4434 12.8991 84.04 11.6253 84.04 9.97559C84.04 8.32585 84.4456 7.05892 85.2568 6.1748C86.0726 5.29069 87.2347 4.84863 88.7432 4.84863C90.2288 4.84863 91.3773 5.29753 92.1885 6.19531C92.9997 7.0931 93.4053 8.35775 93.4053 9.98926ZM85.7764 9.98926C85.7764 11.2197 86.0247 12.154 86.5215 12.792C87.0182 13.4255 87.7542 13.7422 88.7295 13.7422C89.7002 13.7422 90.4316 13.4277 90.9238 12.7988C91.4206 12.1699 91.6689 11.2334 91.6689 9.98926C91.6689 8.76335 91.4229 7.83366 90.9307 7.2002C90.443 6.56673 89.7139 6.25 88.7432 6.25C87.7633 6.25 87.0228 6.56673 86.5215 7.2002C86.0247 7.83366 85.7764 8.76335 85.7764 9.98926ZM95.5518 5.00586H98.5186C99.8949 5.00586 100.888 5.20638 101.499 5.60742C102.114 6.00846 102.422 6.64193 102.422 7.50781C102.422 8.09115 102.271 8.5765 101.971 8.96387C101.67 9.35124 101.237 9.59505 100.672 9.69531V9.76367C101.374 9.89583 101.889 10.1579 102.217 10.5498C102.549 10.9372 102.716 11.4635 102.716 12.1289C102.716 13.0267 102.401 13.7308 101.772 14.2412C101.148 14.7471 100.278 15 99.1611 15H95.5518V5.00586ZM97.1855 9.13477H98.7578C99.4414 9.13477 99.9404 9.02767 100.255 8.81348C100.569 8.59473 100.727 8.22559 100.727 7.70605C100.727 7.23665 100.556 6.89714 100.214 6.6875C99.8766 6.47786 99.3389 6.37305 98.6006 6.37305H97.1855V9.13477ZM97.1855 10.4609V13.626H98.9219C99.6055 13.626 100.12 13.4961 100.467 13.2363C100.818 12.972 100.993 12.5573 100.993 11.9922C100.993 11.4727 100.815 11.0876 100.46 10.8369C100.104 10.5863 99.5645 10.4609 98.8398 10.4609H97.1855Z" fill="#8559E4"/>
</svg>
