<svg width="21" height="20" viewBox="0 0 21 20" fill="none" xmlns="http://www.w3.org/2000/svg">
<path d="M18 8.33331C18 14.1666 10.5 19.1666 10.5 19.1666C10.5 19.1666 3 14.1666 3 8.33331C3 6.34419 3.79018 4.43653 5.1967 3.03001C6.60322 1.62349 8.51088 0.833313 10.5 0.833313C12.4891 0.833313 14.3968 1.62349 15.8033 3.03001C17.2098 4.43653 18 6.34419 18 8.33331Z" stroke="#939393" stroke-width="1.66667" stroke-linecap="round" stroke-linejoin="round"/>
<path d="M10.5 10.8333C11.8807 10.8333 13 9.71402 13 8.33331C13 6.9526 11.8807 5.83331 10.5 5.83331C9.11929 5.83331 8 6.9526 8 8.33331C8 9.71402 9.11929 10.8333 10.5 10.8333Z" stroke="#939393" stroke-width="1.66667" stroke-linecap="round" stroke-linejoin="round"/>
</svg>
