<svg width="695" height="462" viewBox="0 0 695 462" fill="none" xmlns="http://www.w3.org/2000/svg">
<g clip-path="url(#clip0)">
<rect width="695" height="462" rx="8" fill="#F5F7FA"/>
<path d="M459.928 268.477L458.505 278.302L457.081 288.126L455.658 297.95L454.235 307.787L452.812 317.624L451.388 327.461L449.965 337.298L448.542 347.148L447.118 356.997L445.683 366.847L444.259 376.709L442.836 386.583L441.4 396.446L439.977 406.32L438.541 416.208L437.105 426.12L431.664 425.339L423.2 424.105L414.736 422.82L406.285 421.51L397.833 420.175L389.382 418.802L378.776 412.757L368.222 406.673L357.705 400.539L347.263 394.355L336.859 388.12L326.519 381.835L316.228 375.512L305.988 369.126L307.437 367.804L309.779 363.975L309.918 363.736L313.205 364.126L314.956 363.396L316.253 361.683L316.845 359.781L316.745 357.715L315.661 355.964L313.608 354.529L312.865 351.569L313.445 347.059L314.352 344.755L315.586 344.641L316.934 343.797L318.382 342.21L319.579 340.397L320.536 338.344L321.203 335.648L321.556 332.31L324.466 328.683L327.01 326.605L331.431 324.312L332.476 323.569L332.64 322.826L332.665 322.738L332.098 321.529L329.138 318.707L328.017 316.881L328.169 315.445L328.131 315.407L327.967 313.972L325.511 307.598L324.944 304.248L325.435 301.956L325.473 301.779L327.929 292.119L327.337 288.466L327.438 286.501L328.307 284.247L328.496 282.761L328.156 281.375L328.483 279.045L329 276.186L328.37 274.145L328.345 273.289L329.327 271.45L330.574 270.656L332.413 270.304L334.416 270.467L336.582 271.135L338.056 272.357L338.862 274.12L339.794 275.128L340.877 275.392L342.565 274.41L344.391 271.966L344.845 271.866L347.263 260.051L349.442 249.295L356.319 250.68L363.196 252.028L370.073 253.35L376.963 254.66L383.852 255.945L390.755 257.205L397.644 258.439L404.546 259.648L411.461 260.832L418.376 261.991L425.291 263.137L432.206 264.245L439.133 265.341L446.061 266.412L452.988 267.457L459.928 268.477Z" fill="#32777C" stroke="white" stroke-opacity="0.5" stroke-width="0.936649" stroke-miterlimit="10" stroke-linecap="round"/>
<path d="M255.707 83.551L254.334 88.6269L252.961 93.7028L251.588 98.7787L250.215 103.855L248.843 108.931L247.47 114.006L246.097 119.082L244.724 124.146L243.351 129.222L241.978 134.285L240.605 139.348L239.232 144.411L237.859 149.475L236.487 154.538L235.114 159.601L233.741 164.665L237.494 170.408L241.273 176.152L245.077 181.895L248.918 187.626L252.785 193.344L256.677 199.062L260.594 204.768L264.536 210.474L267.572 215.197L270.62 219.92L273.693 224.643L276.779 229.354L279.877 234.065L283.001 238.775L286.137 243.473L289.286 248.172L293.644 254.872L298.027 261.56L302.448 268.236L306.894 274.911L311.378 281.574L315.9 288.225L320.459 294.875L325.372 301.966L324.88 304.258L325.447 307.609L327.903 313.982L328.067 315.418L328.105 315.456L327.954 316.891L329.075 318.718L332.047 321.552L332.601 322.748L332.589 322.836L332.425 323.592L331.38 324.335L326.971 326.628L324.427 328.706L321.517 332.321L321.165 335.671L320.51 338.366L319.553 340.407L318.356 342.221L316.908 343.808L315.56 344.651L314.326 344.765L313.419 347.07L312.839 351.579L313.582 354.551L315.648 355.987L316.731 357.738L316.832 359.804L316.24 361.693L314.943 363.418L313.192 364.149L309.905 363.759L309.766 363.998L307.045 363.733L300.269 362.915L293.48 362.071L286.704 361.202L279.928 360.32L273.151 359.413L266.375 358.481L259.599 357.524L252.823 356.554L252.81 356.365L253.364 353.33L252.546 352.02L251.009 352.347L251.311 348.304L252.092 346.553L252.357 344.727L252.117 340.016L249.989 333.857L244.245 325.444L241.059 322.307L238.817 318.781L237.154 317.546L234.874 316.753L233.879 317.849L231.448 316.325L232.632 313.314L231.159 308.339L229.181 307.332L223.828 306.274L217.392 302.067L215.679 300.115L215.629 297.394L212.921 294.333L209.167 291.033L206.623 290.895L203.562 289.723L199.507 286.965L196.95 286.058L191.735 285.126L189.922 284.282L188.7 281.839L187.075 280.34L188.146 278.048L188.511 275.806L189.267 274.193L189.456 270.251L191.068 267.001L190.841 265.603L190.048 264.356L187.113 262.014L187 260.087L188.234 257.794L187.818 255.943L185.526 253.676L183.952 249.544L181.269 246.761L180.841 243.259L179.417 240.765L179.228 238.864L176.634 231.508L173.384 225.399L173.472 222.452L174.392 218.648L176.873 216.885L178.435 215.159L178.876 213.283L178.989 211.847L178.095 209.025L172.389 205.826L169.114 198.445L170.147 193.911L169.568 188.785L170.424 185.825L171.092 182.537L172.767 182.273L174.001 182.915L173.485 184.15L173.246 186.568L174.266 188.747L175.513 189.931L176.357 191.997L177.213 192.803L178.221 193.231L177.981 191.997L177.591 191.14L177.528 188.709L176.999 185.472L175.891 183.444L175.941 180.358L175.462 179.489L175.349 178.305L177.238 177.499L179.568 177.222L182.402 177.802L190.136 180.522L192.025 180.283L193.335 180.925L194.381 181.127L192.466 179.754L191.194 179.653L189.834 179.086L186.987 178.419L185.942 177.764L184.959 176.504L184.166 176.177L181.118 176.97L180.022 176.441L177.793 173.935L176.672 173.343L174.467 173.733L172.981 177.827L172.641 181.102L171.394 181.076L170.437 179.401L168.611 178.028L167.275 176.353L165.55 173.469L164.542 172.297L162.577 173.658L162.779 172.826L164.114 170.962L164.983 167.41L166.268 170.849L166.205 168.683L165.21 166.025L164.177 164.891L163.787 160.546L160.965 157.133L159.29 152.51L155.448 144.512L156.771 138.958L156.847 131.426L158.963 127.798L159.718 124.99L160.021 120.48L159.68 117.873L157.061 110.177L154 104.56L154.365 101.172L155.096 97.8719L156.972 95.3276L158.761 92.5944L159.617 91.9899L159.743 92.3929L159.366 92.9849L159.92 93.3753L160.575 92.1284L161.167 91.5616L160.537 91.2593L160.738 90.8563L161.393 90.151L164.013 86.6495L165.462 81.6365L168.85 76.0064L169.429 73.9786L169.895 69.3561L169.82 66.4718L168.787 64.1039L170.361 61.6478L171.13 59.0658L170.941 58.5242L176.369 60.2623L181.621 61.9249L186.886 63.5749L192.151 65.2123L197.429 66.8245L202.706 68.4241L207.983 70.0111L213.273 71.5855L218.563 73.1347L223.853 74.6713L229.156 76.1954L234.459 77.7068L239.761 79.2056L245.077 80.6793L250.392 82.1403L255.707 83.551ZM200.451 298.465L204.671 301.084H207.328L207.593 301.878L207.14 302.382L201.27 301.941L199.746 300.744L199.859 299.699L199.545 298.578L200.451 298.465ZM190.489 297.356L189.267 297.104L187.503 296.311L188.322 295.857L189.468 295.681L189.695 296.109L190.489 297.356ZM195.64 301.84L193.952 301.79L192.844 301.097L191.635 297.986L195.791 298.754L197.24 300.354L197.391 300.732L195.64 301.84ZM230.403 326.388L231.058 328.681L229.458 328.013L227.695 327.686L227.443 326.464L227.305 324.814L227.053 324.335L225.894 323.894L225.844 323.731L225.894 322.962L226.322 322.698L229.622 325.33L230.403 326.388ZM204.306 324.562L203.273 324.348L201.938 323.731L201.61 322.081L202.782 322.282L203.789 322.761L204.331 324.134L204.306 324.562ZM226.524 341.591L225.126 341.503L223.778 340.571L223.161 337.611L222.279 335.192L223.186 334.802L223.828 337.069L225.932 340.797L226.524 341.591Z" fill="#32BAAB" stroke="white" stroke-opacity="0.5" stroke-width="0.936649" stroke-miterlimit="10" stroke-linecap="round"/>
<path d="M622.277 201.176L621.937 206.416L621.61 211.656L621.269 216.895L620.942 222.135L620.615 227.375L620.287 232.614L619.947 237.854L619.62 243.093L619.292 248.333L618.952 253.573L618.625 258.8L618.297 264.039L617.957 269.279L617.629 274.519L617.302 279.758L616.975 284.998L611.433 284.62L605.903 284.242L600.374 283.827L594.832 283.411L586.381 282.743L577.929 282.038L569.465 281.295L561.026 280.527L552.575 279.708L544.136 278.864L535.684 277.982L527.258 277.063L518.819 276.118L510.393 275.123L501.967 274.103L493.553 273.045L485.14 271.962L476.726 270.828L468.325 269.67L459.924 268.473L460.919 261.546L461.926 254.618L462.922 247.691L463.929 240.763L464.924 233.836L465.932 226.909L466.927 219.981L467.934 213.066L468.929 206.139L469.937 199.211L470.932 192.284L471.94 185.357L472.935 178.429L473.942 171.502L474.937 164.574L475.945 157.634L482.545 158.579L489.145 159.498L495.745 160.393L502.357 161.274L508.97 162.118L515.582 162.95L522.195 163.756L528.82 164.537L535.445 165.292L542.07 166.035L548.695 166.753L555.321 167.434L561.958 168.101L568.596 168.756L575.221 169.373L581.859 169.978L587.136 170.431L592.426 170.872L597.704 171.313L602.981 171.729L608.259 172.132L613.549 172.522L618.826 172.887L624.116 173.253L623.889 176.741L623.65 180.23L623.423 183.732L623.197 187.221L622.957 190.71L622.731 194.199L622.504 197.687L622.277 201.176Z" fill="#32777C" stroke="white" stroke-opacity="0.5" stroke-width="0.936649" stroke-miterlimit="10" stroke-linecap="round"/>
<path d="M593.778 297.373L592.834 297.31L592.191 305.157L591.549 313.017L590.907 320.864L590.264 328.711L589.622 336.57L588.967 344.429L588.325 352.289L587.682 360.148L587.027 368.008L586.385 375.88L585.743 383.752L585.088 391.624L584.445 399.496L583.79 407.381L583.148 415.265L582.493 423.15L577.115 422.734L571.736 422.294L566.358 421.84L560.993 421.387L555.615 420.908L550.236 420.417L544.871 419.913L539.505 419.397L534.127 418.868L528.761 418.326L523.396 417.772L518.03 417.205L512.665 416.613L507.312 416.021L501.946 415.417L496.593 414.787H496.442L498.281 420.14L501.001 421.916L500.825 421.84L495.573 421.198L490.321 420.543L485.068 419.863L479.829 419.183L474.576 418.49L469.337 417.772L464.085 417.054L458.857 416.323L458.417 419.46L457.976 422.596L457.535 425.745L457.094 428.881L448.605 427.735L440.141 426.563L437.105 426.123L438.541 416.21L439.977 406.323L441.4 396.448L442.836 386.586L444.26 376.711L445.683 366.849L447.119 357L448.542 347.15L449.965 337.301L451.388 327.464L452.812 317.627L454.235 307.79L455.658 297.953L457.082 288.129L458.505 278.304L459.928 268.48L468.329 269.676L476.73 270.835L485.144 271.969L493.558 273.052L501.971 274.11L510.397 275.13L518.824 276.125L527.263 277.07L535.689 277.989L544.14 278.871L552.579 279.715L561.03 280.534L569.469 281.302L577.933 282.045L586.385 282.75L594.836 283.418L594.572 286.907L594.307 290.396L594.043 293.885L593.778 297.373Z" fill="#32777C" stroke="white" stroke-opacity="0.5" stroke-width="0.936649" stroke-miterlimit="10" stroke-linecap="round"/>
<path d="M349.441 249.287L347.262 260.043L344.844 271.858L344.39 271.959L342.564 274.402L340.876 275.384L339.793 275.12L338.861 274.112L338.055 272.349L336.581 271.127L334.415 270.46L332.412 270.296L330.573 270.649L329.326 271.442L328.344 273.281L328.369 274.138L328.999 276.178L328.482 279.037L328.155 281.367L328.495 282.753L328.306 284.239L327.437 286.493L327.336 288.458L327.928 292.111L325.472 301.772L325.434 301.948L320.522 294.857L315.963 288.206L311.441 281.556L306.957 274.893L302.511 268.218L298.077 261.542L293.694 254.854L289.349 248.166L286.187 243.468L283.051 238.77L279.928 234.059L276.829 229.349L273.731 224.638L270.67 219.927L267.609 215.204L264.574 210.481L260.632 204.775L256.727 199.07L252.835 193.351L248.968 187.633L245.139 181.902L241.323 176.171L237.544 170.428L233.791 164.672L235.164 159.609L236.524 154.545L237.897 149.469L239.27 144.406L240.63 139.343L242.003 134.267L243.376 129.203L244.736 124.128L246.109 119.064L247.482 113.988L248.855 108.912L250.228 103.849L251.601 98.7732L252.961 93.6973L254.334 88.6214L255.707 83.5455L263.251 85.5734L270.796 87.5634L278.341 89.5157L285.898 91.4428L293.468 93.3447L301.05 95.2088L308.632 97.0477L316.215 98.8488L323.797 100.612L331.367 102.35L338.962 104.051L346.557 105.726L354.152 107.363L361.759 108.975L369.379 110.55L376.999 112.099L376.13 116.394L375.274 120.689L374.405 124.971L373.548 129.266L372.692 133.561L371.823 137.844L370.966 142.139L370.097 146.421L369.241 150.716L368.384 154.999L367.515 159.294L366.659 163.576L365.802 167.858L364.933 172.153L364.077 176.436L363.22 180.718L362.351 185.013L361.495 189.296L360.638 193.578L359.769 197.86L358.913 202.155L358.056 206.438L357.187 210.72L356.331 215.003L355.474 219.285L354.605 223.58L353.749 227.862L352.892 232.145L352.036 236.427L351.167 240.722L350.31 245.005L349.441 249.287Z" fill="#32777C" stroke="white" stroke-opacity="0.5" stroke-width="0.936649" stroke-miterlimit="10" stroke-linecap="round"/>
<path d="M783.148 303.225L783.714 307.117L784.281 311.009L784.848 314.901L785.427 318.793L785.994 322.685L786.574 326.577L787.153 330.469L787.732 334.361L787.72 337.409L787.707 340.457L787.695 343.505L787.682 346.553L787.669 349.601L787.657 352.649L787.644 355.697L787.632 358.745L787.619 361.793L787.594 364.854L787.581 367.902L787.569 370.95L787.556 373.998L787.543 377.059L787.531 380.107L787.518 383.155L782.203 381.807L780.868 380.925L778.424 379.93L776.22 377.84L771.887 375.27L770.25 374.653L769.734 374.729L768.852 376.026L766.572 377.059L765.325 377.109L763.058 376.744L762.63 376.416L762.302 375.635L761.396 375.106L760.728 375.522L757.453 376.618L756.962 377.386L755.111 377.424L753.272 376.87L748.637 378.583L747.037 379.918L745.374 380.384L744.505 381.681L744.001 381.492L742.263 379.88L740.475 379.389L738.044 377.777L737.968 376.366L737.704 376.19L737.263 376.026L736.721 376.152L735.651 377.348L735.034 377.651L734.416 377.6L732.061 376.769L731.079 375.321L730.588 374.867L730.046 374.779L729.026 375.195L728.434 376.782L727.98 377.197L726.985 377.462L727.036 378.255L726.129 380.434L725.65 380.862L725.033 380.774L724.403 380.233L723.937 379.452L723.748 378.784L724.126 377.046L723.925 376.467L723.459 376.278L722.287 377.084L721.267 377.034L719.957 377.827L719.138 378.066L718.395 377.852L717.211 376.505L715.12 375.623L714.34 374.048L713.974 373.595L713.533 373.469L713.08 373.507L712.324 373.998L709.868 376.001L708.76 376.63L707.803 376.744L706.908 376.517L706.342 375.988L706.266 373.897L705.75 373.255L703.545 371.907L703.105 370.66L702.928 368.947L700.233 369.149L696.92 368.897L695.384 370.358L694.603 370.623L693.671 370.295L691.051 368.179L688.204 368.507L686.605 368.229L682.688 366.592L679.589 366.353L678.304 366.038L677.637 365.673L677.41 363.342L676.251 361.34L675.861 360.786L673.821 359.337L673.48 359.274L673.241 359.576L672.712 361.101L672.082 361.151L669.677 360.622L667.435 360.987L666.226 360.181L662.157 356.428L660.495 355.433L659.147 355.08L659.285 351.73L659.437 348.367L659.575 345.016L659.714 341.666L659.865 338.316L660.003 334.965L660.142 331.615L660.293 328.265L660.432 324.914L660.57 321.564L660.721 318.214L660.86 314.863L661.011 311.513L661.15 308.175L661.288 304.825L661.439 301.474L657.207 301.285L652.975 301.084L648.743 300.87L644.511 300.656L640.279 300.429L636.047 300.19L631.815 299.95L627.583 299.698L623.364 299.434L619.132 299.169L614.9 298.892L610.68 298.603L606.448 298.3L602.229 297.998L597.997 297.683L593.777 297.368L594.042 293.879L594.306 290.391L594.571 286.902L594.835 283.413L600.377 283.828L605.907 284.244L611.436 284.622L616.978 285L622.155 285.34L627.331 285.667L632.508 285.97L637.697 286.272L642.874 286.549L648.063 286.826L653.24 287.078L658.429 287.33L663.606 287.557L668.795 287.771L673.984 287.985L679.161 288.174L684.35 288.35L689.539 288.514L694.729 288.665L699.918 288.804L705.107 288.929L710.296 289.043L715.473 289.144L720.662 289.232L725.852 289.295L731.041 289.358L736.23 289.408L741.419 289.446L746.609 289.458L751.798 289.471L756.987 289.458L762.176 289.446L767.366 289.408L772.555 289.358L777.744 289.307L782.934 289.232L782.984 292.733L783.034 296.235L783.085 299.724L783.148 303.225Z" fill="#32777C" stroke="white" stroke-opacity="0.5" stroke-width="0.936649" stroke-miterlimit="10" stroke-linecap="round"/>
<path d="M225.501 -46.7949L227.579 -46.8956L228.889 -45.9384L230.401 -44.1499L231.131 -39.8801L231.093 -33.1668L230.854 -30.9878L231.912 -29.3L233.587 -28.7332L240.112 -25.7859L241.132 -25.5592L242.429 -25.4333L246.976 -26.655L251.372 -26.2142L256.271 -24.6146L259.105 -23.0779L259.886 -21.5917L262.493 -20.71L269.156 -20.3196L276.361 -19.3623L280.366 -19.3497L285.152 -20.2692L295.468 -20.3322L300.342 -19.3749L303.038 -19.7402L303.743 -20.1055L304.071 -20.0299L309.134 -18.7326L314.197 -17.4479L319.26 -16.1883L324.336 -14.9414L329.412 -13.7071L334.488 -12.4853L339.577 -11.2762L344.312 -10.1552L344.564 -8.83267L346.013 -6.01133L348.393 -3.32853L349.741 -0.771683L350.081 1.64661L347.524 6.39503L342.045 13.4484L338.884 18.0331L338.065 20.1365L335.37 23.4365L330.81 27.9078L328.266 31.4093L327.75 33.9661L328.531 35.6917L330.621 36.6111L331.919 37.7951L332.423 39.231L332.183 40.3897L331.176 41.2714L330.697 42.3042L330.76 43.526L330.017 45.4656L327.813 49.3072L327.775 49.4457L326.213 56.159L324.777 62.2678L323.354 68.3639L321.918 74.4726L320.495 80.5687L319.072 86.6648L317.648 92.761L316.212 98.8571L308.63 97.056L301.048 95.217L293.465 93.3529L285.896 91.451L278.338 89.524L270.794 87.5717L263.249 85.5816L255.705 83.5538L250.389 82.1053L245.074 80.6443L239.759 79.1706L234.444 77.6718L229.141 76.173L223.839 74.6489L218.548 73.0997L213.258 71.5505L207.968 69.9761L202.691 68.3891L197.414 66.7895L192.136 65.1773L186.871 63.5399L181.607 61.8899L176.354 60.2273L170.913 58.4892L169.439 54.4209L169.918 49.2316L170.371 47.1156L172.412 41.7878V39.2436L171.757 34.8226L173.646 31.7745L175.158 30.0364L180.108 21.925L180.851 21.3708L181.72 21.6731L183.735 20.6655L183.143 20.0987L181.846 20.464L183.911 17.29L185.939 14.645L186.972 13.7885L190.448 4.15307L193.433 -3.10181L195.209 -5.24302L195.675 -7.88803L197.174 -11.2006L197.993 -14.7651L205.424 -30.8241L205.789 -32.9275L207.288 -35.4339L208.963 -42.7896L211.772 -50.712L211.571 -51.896L211.659 -53.0799L212.2 -53.0925L212.792 -51.6189L217.251 -50.2208L220.438 -50.4097L221.357 -49.7296L222.1 -47.8907L223.524 -47.1224L225.501 -46.7949Z" fill="#32777C" stroke="white" stroke-opacity="0.5" stroke-width="0.936649" stroke-miterlimit="10" stroke-linecap="round"/>
<path d="M586.662 114.081L586.07 121.072L585.466 128.062L584.861 135.052L584.269 142.043L583.664 149.021L583.072 156.011L582.468 162.989L581.863 169.979L575.226 169.375L568.6 168.757L561.963 168.102L555.325 167.435L548.7 166.755L542.075 166.037L535.45 165.294L528.825 164.538L522.199 163.757L515.587 162.951L508.974 162.12L502.362 161.276L495.749 160.394L489.149 159.5L482.549 158.58L475.95 157.636L470.685 156.867L465.432 156.087L460.18 155.293L454.928 154.487L449.676 153.656L444.424 152.812L439.171 151.955L433.932 151.086L434.511 147.635L435.09 144.184L435.67 140.72L436.237 137.269L436.816 133.818L437.395 130.354L437.975 126.903L438.541 123.452L439.272 119.119L439.99 114.812L440.708 110.492L441.426 106.159L442.144 101.839L442.874 97.5184L443.592 93.1982L444.31 88.878L445.041 84.5453L445.759 80.2125L446.477 75.8923L447.207 71.5595L447.925 67.2268L448.643 62.9066L449.373 58.5738L450.091 54.241L450.671 50.7521L451.263 47.2632L451.855 43.7743L452.434 40.2854L456.754 41.0033L461.074 41.7087L465.407 42.414L469.727 43.0942L474.06 43.7743L478.393 44.4293L482.726 45.0842L487.059 45.7392L491.391 46.3689L495.724 46.9861L500.07 47.6033L504.402 48.2079L508.748 48.7998L513.093 49.3792L517.426 49.946L521.771 50.5128L526.117 51.0544L530.475 51.596L534.82 52.125L539.165 52.6414L543.523 53.1578L547.881 53.649L552.227 54.1402L556.585 54.6189L560.943 55.0723L565.301 55.5383L569.659 55.9791L574.016 56.4074L578.374 56.8356L582.732 57.2513L587.103 57.6543L591.461 58.0448L590.869 65.0604L590.264 72.0759L589.66 79.0789L589.055 86.0819L588.463 93.0849L587.859 100.088L587.267 107.078L586.662 114.081Z" fill="#32777C" stroke="white" stroke-opacity="0.5" stroke-width="0.936649" stroke-miterlimit="10" stroke-linecap="round"/>
<path d="M787.515 383.156L788.762 384.504L789.757 384.882L790.047 385.424L790.525 385.562L791.117 385.436L791.999 384.794L793.321 384.945L794.417 384.706L796.596 384.983L797.818 385.6L797.931 389.404L798.045 393.22L798.158 397.036L798.271 400.853L798.347 404.417L798.422 407.982L798.498 411.546L798.574 415.111L798.649 418.675L798.725 422.24L798.8 425.804L798.876 429.369L802.277 432.732L803.763 435.062L804.241 436.258L804.481 440.377L804.833 441.359L806.546 442.871L806.609 443.891L808.436 446.826L808.423 448.224L810.174 451.36L811.144 452.166L811.358 454.32L811.912 455.945L811.169 457.129L811.534 458.728L811.106 460.24L810.904 462.242L809.871 465.366L808.927 466.903L807.655 469.825L807.831 472.23L807.126 474.875L807.063 475.883L807.831 477.609L808.209 482.407L807.831 483.428L806.257 486.287L805.085 486.249L802.617 490.972L804.153 493.554L804.078 494.499L798.914 495.154L787.263 500.633L782.716 503.542L782.943 502.585L788.434 498.819L786.469 498.29L783.333 499.26L782.2 498.92L783.497 495.859L783.031 493.176L780.802 493.139L779.403 495.292L778.408 495.217L777.099 494.31L776.104 494.612L776.897 499.461L778.333 501.439L779.542 503.97L776.343 507.157L773.37 509.79L773.068 512.309L770.07 515.609L767.236 517.485L760.561 521.881L758.646 522.826L755.624 524.866L751.442 526.39L747.424 528.796L746.064 529.161L748.633 527.121L751.669 525.105L749.061 525.382L745.044 524.438L742.587 524.375L742.562 525.105L740.686 526.138L738.759 524.602L737.927 523.569L737.537 522.674L736.718 522.46L735.925 522.863L738.771 529.136L740.005 529.413L741.366 530.043L739.653 531.491L737.814 532.587L734.93 533.305L732.511 531L731.957 533.859L731.617 536.718L730.786 537.449L729.463 538.482L728.758 537.688L728.43 536.58L727.587 537.562L726.352 538.293L724.324 538.419L722.8 538.796L722.825 539.98L723.166 541.177L725.873 540.27L724.866 543.318L722.347 546.316L720.306 546.996L717.208 546.505L716.44 546.794L715.747 547.412L719.286 552.21L716.855 559.327L715.319 561.896L714.273 562.211L713.152 562.261L709.16 559.881L707.006 558.055L708.845 562.942L714.097 564.453L714.336 566.292L714.286 567.866L713.215 569.693L712.195 572.124L712.888 573.837L713.656 578.069L714.336 580.021L715.029 585.915L715.835 588.485L720.558 597.957L722.196 598.057L722.448 599.078L722.271 601.03L718.757 601.546L717.271 602.39L716.969 603.146L716.742 603.549L716.288 603.499L714.626 602.932L710.86 600.198L705.356 598.435L698.101 597.642L693.164 596.181L690.556 594.077L687.811 592.793L684.926 592.326L682.558 591.155L680.707 589.266L677.961 588.006L674.321 587.376L671.991 585.928L670.454 582.527V582.477L669.17 576.834L667.444 573.27L664.005 568.798L663.691 568.219V567.501L664.232 564.995L663.917 563.168L662.834 561.644L662.633 560.07L663.313 558.445L663.426 556.468L662.985 554.138L660.794 551.555L656.877 548.722L653.614 544.678L651.02 539.426L648.4 535.748L645.742 533.645L643.979 531.139L643.11 528.242L642.896 526.579L643.324 526.138L641.787 522.889L638.311 516.83L636.371 512.434L635.956 509.701L633.739 506.351L629.734 502.383L627.58 499.827L627.114 498.114H627.101L620.841 492.836L619.128 489.662L617.705 488.604H616.005L615.148 488.252V487.559L614.594 487.496L613.498 488.063L610.022 487.974L604.165 487.219L599.984 486.098L597.465 484.624L595.626 484.674L594.467 486.249L592.162 487.156L588.711 487.382L585.549 490.229L582.665 495.695L581.305 499.247L581.481 500.885L580.738 502.006L579.075 502.623L577.312 504.147L575.448 506.565L573.407 507.648L571.191 507.384L567.248 505.079L561.593 500.733L557.122 497.95L553.809 496.753L550.975 494.713L548.62 491.829L546.391 489.851L544.287 488.768L542.02 485.607L539.577 480.354L538.493 476.374L538.884 472.331L535.962 463.149L534.337 459.144L533.027 457.242L530.332 454.861L526.263 451.99L520.998 446.523L514.562 438.45L509.952 433.5L507.144 431.674L504.851 428.751L503.088 424.733L501.236 422.101L501.022 421.963L498.302 420.199L496.463 414.834L496.614 414.846L501.967 415.463L507.333 416.081L512.698 416.673L518.064 417.252L523.429 417.819L528.795 418.373L534.161 418.914L539.526 419.443L544.892 419.96L550.257 420.464L555.636 420.955L561.014 421.434L566.392 421.9L571.77 422.353L577.148 422.794L582.526 423.209L583.181 415.325L583.824 407.44L584.479 399.556L585.121 391.683L585.776 383.811L586.418 375.939L587.061 368.067L587.703 360.208L588.345 352.348L588.988 344.489L589.63 336.629L590.273 328.77L590.915 320.923L591.557 313.076L592.2 305.229L592.842 297.382L593.787 297.433L598.006 297.76L602.226 298.075L606.445 298.377L610.677 298.667L614.909 298.957L619.141 299.234L623.373 299.498L627.605 299.763L631.837 300.015L636.069 300.254L640.301 300.493L644.533 300.72L648.765 300.934L652.997 301.148L657.229 301.35L661.461 301.539L661.323 304.889L661.184 308.24L661.046 311.59L660.907 314.94L660.768 318.291L660.63 321.641L660.491 324.991L660.34 328.342L660.202 331.692L660.063 335.042L659.925 338.393L659.786 341.743L659.647 345.093L659.509 348.444L659.37 351.794L659.232 355.144L660.58 355.497L662.242 356.492L666.31 360.246L667.52 361.064L669.761 360.699L672.155 361.228L672.797 361.178L673.326 359.666L673.565 359.364L673.905 359.427L675.946 360.875L676.336 361.43L677.495 363.432L677.722 365.762L678.389 366.128L679.661 366.442L682.772 366.682L686.69 368.319L688.289 368.596L691.136 368.269L693.755 370.372L694.688 370.7L695.469 370.435L697.018 368.974L700.33 369.226L703.026 369.024L703.202 370.737L703.643 371.972L705.847 373.332L706.363 373.974L706.426 376.053L706.993 376.594L707.9 376.821L708.845 376.708L709.966 376.078L712.422 374.075L713.165 373.584L713.618 373.546L714.059 373.66L714.424 374.113L715.205 375.687L717.296 376.569L718.48 377.917L719.223 378.131L720.042 377.892L721.352 377.098L722.372 377.148L723.543 376.342L724.009 376.531L724.198 377.111L723.833 378.849L724.022 379.516L724.488 380.297L725.118 380.839L725.735 380.927L726.214 380.499L727.12 378.32L727.07 377.526L728.065 377.262L728.519 376.846L729.11 375.272L730.131 374.844L730.672 374.932L731.164 375.385L732.146 376.834L734.514 377.665L735.131 377.715L735.748 377.413L736.819 376.229L737.373 376.09L737.814 376.254L738.066 376.431L738.141 377.841L740.572 379.453L742.361 379.945L744.099 381.569L744.603 381.758L745.459 380.448L747.134 379.995L748.734 378.66L753.369 376.947L755.208 377.489L757.059 377.451L757.538 376.695L760.825 375.599L761.493 375.184L762.4 375.713L762.727 376.493L763.156 376.821L765.41 377.199L766.657 377.148L768.937 376.116L769.818 374.818L770.335 374.743L771.972 375.36L776.305 377.929L778.509 380.02L780.953 381.015L782.288 381.909L787.515 383.156ZM775.801 510.331L774.554 510.621L779.933 506.2L781.053 504.739L782.502 504.789L780.121 507.258L775.801 510.331ZM732.637 538.582L731.705 538.696L732.864 537.172L734.728 536.416L738.834 533.494L740.497 533.305L741.366 532.297L741.744 532.146L741.492 533.393L738.204 535.144L732.637 538.582ZM726.264 545.648L725.71 545.711L726.957 543.394L727.196 542.462L729.224 539.54L730.282 539.111L730.71 540.371L728.632 542.424L726.264 545.648ZM717.435 562.665L716.616 564.289L716.868 561.846L719.009 556.329L723.291 549.099L725.067 547.903L720.143 555.838L717.435 562.665ZM721.667 595.312L721.289 596.634L719.236 590.399L715.986 576.33L715.974 568.345L716.553 565.612L717.271 576.897L720.898 591.281L721.667 595.312Z" fill="#32777C" stroke="white" stroke-opacity="0.5" stroke-width="0.936649" stroke-miterlimit="10" stroke-linecap="round"/>
<path d="M438.54 123.446L437.974 126.897L437.394 130.349L436.815 133.812L436.236 137.263L435.669 140.715L435.089 144.178L434.51 147.629L433.931 151.08L439.17 151.95L444.423 152.806L449.675 153.65L454.927 154.481L460.179 155.287L465.431 156.081L470.684 156.862L475.949 157.63L474.941 164.57L473.946 171.497L472.938 178.425L471.943 185.352L470.936 192.28L469.941 199.207L468.933 206.134L467.938 213.062L466.93 219.977L465.935 226.904L464.928 233.832L463.933 240.759L462.925 247.686L461.93 254.614L460.922 261.541L459.927 268.469L452.987 267.448L446.06 266.403L439.132 265.332L432.205 264.237L425.29 263.128L418.375 261.982L411.461 260.823L404.546 259.639L397.644 258.43L390.754 257.196L383.852 255.936L376.962 254.652L370.072 253.342L363.195 252.019L356.318 250.671L349.441 249.286L350.31 245.004L351.167 240.721L352.036 236.426L352.893 232.144L353.749 227.861L354.605 223.579L355.475 219.284L356.331 215.002L357.188 210.719L358.057 206.437L358.913 202.154L359.77 197.859L360.639 193.577L361.495 189.295L362.352 185.012L363.221 180.717L364.077 176.435L364.934 172.152L365.803 167.857L366.659 163.575L367.516 159.293L368.385 154.998L369.241 150.715L370.098 146.42L370.967 142.138L371.823 137.843L372.692 133.56L373.549 129.265L374.405 124.97L375.274 120.688L376.131 116.393L377 112.098L380.829 112.866L384.67 113.635L388.512 114.378L392.354 115.121L396.195 115.864L400.037 116.595L403.878 117.312L407.72 118.018L411.574 118.723L415.416 119.428L419.27 120.109L423.124 120.801L426.978 121.469L430.832 122.136L434.686 122.791L438.54 123.446Z" fill="#32777C" stroke="white" stroke-opacity="0.5" stroke-width="0.936649" stroke-miterlimit="10" stroke-linecap="round"/>
<path d="M782.934 289.236L777.745 289.311L772.556 289.362L767.366 289.412L762.177 289.45L756.988 289.463L751.799 289.475L746.609 289.463L741.42 289.45L736.231 289.412L731.041 289.362L725.852 289.299L720.663 289.236L715.474 289.148L710.297 289.047L705.108 288.934L699.918 288.808L694.729 288.669L689.54 288.518L684.351 288.354L679.161 288.178L673.985 287.989L668.795 287.775L663.606 287.561L658.43 287.334L653.24 287.082L648.064 286.83L642.874 286.553L637.698 286.276L632.508 285.974L627.332 285.671L622.155 285.344L616.979 285.004L617.306 279.764L617.633 274.524L617.961 269.285L618.301 264.045L618.628 258.806L618.956 253.579L619.296 248.339L619.623 243.099L619.951 237.86L620.291 232.62L620.618 227.38L620.946 222.141L621.273 216.901L621.614 211.661L621.941 206.422L622.281 201.182L626.778 201.484L631.287 201.762L635.783 202.039L640.292 202.303L644.801 202.555L649.311 202.794L653.82 203.021L658.329 203.248L662.825 203.462L667.334 203.663L671.844 203.852L676.365 204.029L680.874 204.192L685.384 204.356L689.893 204.507L694.402 204.646L698.911 204.772L703.42 204.885L707.929 204.986L712.451 205.087L716.96 205.175L721.469 205.25L725.991 205.313L730.5 205.364L735.009 205.414L739.531 205.452L744.04 205.465L748.549 205.477L753.071 205.49L757.58 205.477L762.089 205.465L765.968 205.427L770.969 209.004L772.278 209.029L773.815 208.45L774.986 209.256L775.805 211.485L775.704 212.619L774.684 212.682L773.425 214.029L771.926 216.687L772.329 219.156L774.646 221.448L776.196 223.753L776.989 226.096L778.526 227.897L781.939 229.799L781.914 230.869L781.977 234.522L782.04 238.174L782.103 241.815L782.166 245.467L782.229 249.107L782.292 252.76L782.355 256.4L782.418 260.053L782.481 263.705L782.556 267.345L782.619 270.998L782.682 274.638L782.745 278.291L782.808 281.943L782.871 285.583L782.934 289.236Z" fill="#32777C" stroke="white" stroke-opacity="0.5" stroke-width="0.936649" stroke-miterlimit="10" stroke-linecap="round"/>
<path d="M450.088 54.2446L449.37 58.5774L448.64 62.9101L447.922 67.2303L447.204 71.5631L446.473 75.8959L445.755 80.2161L445.038 84.5489L444.307 88.8816L443.589 93.2018L442.871 97.522L442.141 101.842L441.423 106.162L440.705 110.495L439.987 114.815L439.269 119.123L438.538 123.456L434.684 122.801L430.83 122.146L426.976 121.478L423.122 120.811L419.268 120.118L415.413 119.438L411.572 118.732L407.718 118.027L403.876 117.322L400.035 116.604L396.193 115.873L392.351 115.13L388.51 114.387L384.668 113.644L380.827 112.876L376.998 112.107L369.378 110.558L361.757 108.984L354.15 107.372L346.555 105.734L338.96 104.059L331.365 102.359L323.795 100.62L316.213 98.8571L317.649 92.761L319.072 86.6649L320.495 80.5688L321.919 74.4726L323.354 68.3639L324.778 62.2678L326.214 56.1591L327.775 49.4458L327.813 49.3072L330.017 45.4657L330.76 43.526L330.697 42.3042L331.176 41.2714L332.184 40.3898L332.423 39.231L331.919 37.7951L330.622 36.6112L328.531 35.6917L327.75 33.9662L328.267 31.4093L330.811 27.9078L335.37 23.4365L338.066 20.1365L338.884 18.0331L342.046 13.4484L347.525 6.39505L350.082 1.64664L349.742 -0.771652L348.394 -3.3285L346.013 -6.0113L344.565 -8.83265L344.313 -10.1552L344.023 -11.7799L344.124 -13.7448L344.867 -14.7146L344.918 -16.6921L344.263 -19.6772L344.149 -21.6421L344.426 -22.2466L344.628 -22.4734L345.648 -26.8943L346.668 -31.3027L347.701 -35.7236L348.721 -40.1446L349.742 -44.5655L350.774 -48.9864L351.795 -53.42L352.827 -57.8535L353.86 -62.2745L354.88 -66.708L355.913 -71.1416L356.946 -75.5877L357.966 -80.0212L358.999 -84.4674L360.032 -88.9135L361.04 -93.3345L366.922 -91.9616L374.718 -90.1731L379.139 -89.178L377.602 -82.3262L376.066 -75.4618L374.516 -68.5973L372.98 -61.7455L374.365 -58.5211L375.461 -56.4806L376.003 -54.4276L377.023 -52.1731L377.161 -51.4299L377.212 -49.2384L376.507 -47.8277L376.947 -46.1399L376.645 -45.4094L375.978 -45.1575L375.826 -45.0567L375.814 -44.9056L375.965 -44.6033L377.691 -42.7014L379.277 -40.2327L381.545 -38.2679L382.174 -37.2728L384.693 -32.474L385.903 -29.5141L387.364 -27.2344L387.83 -24.8791L389.354 -22.5867L389.631 -21.5287L389.732 -21.2894L389.971 -21.2138L391.256 -21.4153L391.545 -21.2264L391.974 -20.3573L391.86 -19.1986L392.2 -18.6318L392.88 -18.2036L393.699 -17.9516L396.445 -17.9642L397.012 -17.8509L397.238 -17.5612V-16.9314L396.999 -15.9364L396.457 -14.5887L395.374 -13.3418L395.236 -12.0193L393.989 -9.10975L392.981 -7.22046L392.528 -5.25559L391.545 -4.27314L391.684 -2.84989L390.979 -0.847244L391.13 -0.267853L391.873 0.878326L391.734 3.47295L391.47 3.90119L389.58 4.53095L388.863 5.07256L388.459 5.94164L388.648 8.75038L387.628 10.0603L387.276 11.3072L387.376 11.6599L388.8 12.6549L390.399 14.5442L390.941 14.9851L391.369 15.0228L392.276 14.6828L393.372 13.8515L395.399 13.1965L397.981 11.4332L398.208 10.8412L398.448 10.5389L398.725 10.6145L399.342 11.0427L400.438 12.6423L401.458 13.6122L401.622 13.8137L401.659 14.2041L401.344 15.5141L401.785 16.6854L401.647 18.4236L401.974 20.2625L402.05 22.4163L403.297 25.414L403.889 27.4922L404.77 28.5628L405.211 29.6964L405.451 30.9937L405.438 32.0013L404.481 33.6513L404.506 34.4196L404.909 35.3391L406.395 37.5306L406.723 37.7448L408.461 37.8707L409.33 38.3619L410.073 39.4451L410.741 41.0195L411.081 42.5184L410.929 44.2061L411.534 46.2214L411.358 47.8714L411.811 48.6901L412.806 49.8866L413.814 50.6801L414.255 50.8061L414.62 50.6171L414.884 49.7355L415.476 49.1309L417.063 48.4381L418.398 48.7027L423.311 50.4408L423.676 50.4534L423.953 50.2267L425.087 48.9042L425.88 48.4508L426.976 48.4633L430.024 49.3828L433.677 49.8111L435.478 50.5668L438.312 50.4912L441.397 51.4484L441.851 51.2721L442.002 50.995L441.813 50.3904L441.952 49.282L442.808 48.0855L443.224 47.0149L443.967 46.4985L444.886 46.297L445.567 46.4607L446.133 47.166L446.725 48.287L447.62 51.2091L448.174 52.2923L448.904 53.2873L450.088 54.2446Z" fill="#32777C" stroke="white" stroke-opacity="0.5" stroke-width="0.936649" stroke-miterlimit="10" stroke-linecap="round"/>
<path d="M740.936 38.5583L740.243 41.3544L739.765 42.5762L738.807 43.8231L735.797 46.5185L735.054 47.4505L735.155 48.2944L735.747 49.3902L737.258 51.9219L738.077 52.9547L741.377 54.6677L742.876 56.7711L742.838 63.1065L742.813 69.4293L742.775 75.7522L742.75 82.0624L742.712 88.3852L742.687 94.6955L742.649 101.006L742.624 107.316L739.651 107.404L740.004 109.167L740.797 110.893L740.936 111.888L740.772 112.707L740.205 113.425L740.331 114.571L740.495 114.873L741.83 115.616L742.284 116.611L742.41 117.745L742.384 118.614L741.566 120.176L741.314 122.254L740.281 125.352L739.16 127.229L738.933 128.199L739.034 128.967L740.747 130.97L740.835 131.763L741.402 132.796L741.918 135.114L740.319 134.723L738.77 133.476L737.901 131.537L735.243 129.723L730.809 128.035L727.837 126.511L726.313 125.164L722.66 124.534L716.841 124.609L713.05 125.239L711.287 126.436L707.634 125.05L701.588 120.717L693.439 120.465L686.31 120.239L679.181 119.974L672.065 119.685L664.936 119.357L657.807 119.017L650.691 118.652L643.562 118.249L636.445 117.82L629.329 117.367L622.213 116.888L615.096 116.372L607.98 115.843L600.876 115.276L593.773 114.697L586.656 114.08L587.261 107.077L587.853 100.086L588.457 93.0833L589.049 86.0803L589.654 79.0773L590.258 72.0743L590.863 65.0588L591.455 58.0432L591.619 58.0558L591.77 58.0684L591.934 58.0936L592.085 58.1062L592.097 58.018L592.11 57.9298L592.123 57.8417L592.135 57.7535L592.677 51.2291L593.218 44.6922L593.773 38.1678L594.314 31.6309L598.886 32.0213L603.458 32.4118L608.03 32.7896L612.603 33.1549L617.187 33.5076L621.759 33.835L626.331 34.1751L630.916 34.49L635.488 34.7923L640.073 35.082L644.645 35.3591L649.23 35.6362L653.814 35.8881L658.386 36.14L662.971 36.3667L667.556 36.5934L672.14 36.8075L676.725 37.0091L681.31 37.1854L685.895 37.3617L690.479 37.5255L695.064 37.6766L699.649 37.8152L704.233 37.9537L708.831 38.0671L713.415 38.1678L718 38.2686L722.585 38.3442L727.182 38.4197L731.767 38.4701L736.351 38.5205L740.936 38.5583Z" fill="#32777C" stroke="white" stroke-opacity="0.5" stroke-width="0.936649" stroke-miterlimit="10" stroke-linecap="round"/>
<path d="M740.942 38.5611L736.357 38.5233L731.773 38.4729L727.188 38.4225L722.591 38.347L718.006 38.2714L713.421 38.1706L708.837 38.0699L704.239 37.9565L699.655 37.818L695.07 37.6794L690.485 37.5283L685.901 37.3645L681.316 37.1882L676.731 37.0119L672.147 36.8103L667.562 36.5962L662.977 36.3695L658.393 36.1428L653.82 35.8909L649.236 35.639L644.651 35.3619L640.079 35.0848L635.494 34.7951L630.922 34.4928L626.338 34.1779L621.765 33.8378L617.193 33.5104L612.609 33.1577L608.037 32.7924L603.464 32.4146L598.892 32.0241L594.32 31.6337L594.774 26.2681L595.215 20.8899L595.668 15.5243L596.109 10.1461L596.562 4.76791L597.003 -0.610283L597.457 -5.98847L597.91 -11.3667L598.363 -16.7575L598.804 -22.1482L599.258 -27.539L599.711 -32.9424L600.164 -38.3458L600.618 -43.7492L601.071 -49.1526L601.512 -54.5433L603.527 -54.367L611.5 -53.6869L619.46 -53.0445L627.433 -52.4399L635.406 -51.8857L643.379 -51.3567L651.364 -50.8655L659.337 -50.4121L667.323 -49.9964L675.295 -49.6186L683.281 -49.2785L691.279 -48.9762L699.264 -48.7117L707.25 -48.4724L715.235 -48.2835L723.233 -48.1323L728.926 -48.0442L730.652 -39.1393L730.601 -36.6454L730.299 -35.0332L730.513 -32.2119L730.375 -30.3226L730.639 -27.9043L730.513 -24.7051L731.37 -21.0021L732.692 -17.6391L732.642 -16.6819L733.02 -14.654L733.801 -12.9789L735.438 -8.04151L735.312 -3.38124L735.589 -1.94538L735.929 8.09307L736.055 9.36519L736.975 10.9144L736.509 13.1942L736.446 14.3781L736.584 18.5849L737.126 20.2349L737.63 23.5601L739.821 27.6913L740.174 29.2532L740.3 30.5127L740.892 33.0317L740.678 36.3947L740.942 38.5611Z" fill="#32777C" stroke="white" stroke-opacity="0.5" stroke-width="0.936649" stroke-miterlimit="10" stroke-linecap="round"/>
<path d="M741.924 135.112L742.541 135.264L743.927 137.745L744.481 142.166L745.741 145.743L747.693 148.451L748.675 150.441L748.688 151.7L749.154 153.048L750.086 154.484L750.464 156.927L750.275 160.379L750.665 162.205L751.66 162.432L752.101 162.923L751.963 163.666L752.29 164.233L753.096 164.585L753.323 165.58L752.97 167.205L753.26 168.225L754.192 168.641L754.368 169.447L753.789 170.631L753.877 171.563L754.646 172.243L755.162 175.254L755.439 180.594L755.351 183.73L754.91 184.637L755.615 186.564L756.925 188.642L757.467 189.511L758.651 192.434L759.155 195.343L760.326 197.22L762.177 198.076L763.424 199.928L764.067 202.787L765.629 205.167L765.969 205.419L762.089 205.457L757.58 205.47L753.071 205.482L748.549 205.47L744.04 205.457L739.531 205.444L735.009 205.407L730.5 205.356L725.991 205.306L721.469 205.243L716.96 205.167L712.451 205.079L707.93 204.978L703.42 204.878L698.911 204.764L694.402 204.638L689.893 204.5L685.384 204.349L680.875 204.185L676.366 204.021L671.844 203.845L667.335 203.656L662.826 203.454L658.329 203.24L653.82 203.014L649.311 202.787L644.802 202.548L640.293 202.296L635.784 202.031L631.287 201.754L626.778 201.477L622.282 201.175L622.508 197.686L622.735 194.197L622.962 190.708L623.201 187.219L623.428 183.73L623.654 180.229L623.894 176.74L624.12 173.251L618.83 172.886L613.553 172.52L608.263 172.13L602.986 171.727L597.708 171.311L592.431 170.87L587.141 170.43L581.863 169.976L582.468 162.986L583.072 156.008L583.664 149.018L584.269 142.04L584.861 135.049L585.466 128.059L586.07 121.069L586.662 114.078L593.778 114.695L600.882 115.275L607.986 115.842L615.102 116.371L622.219 116.887L629.335 117.366L636.451 117.819L643.568 118.247L650.697 118.65L657.813 119.016L664.942 119.356L672.071 119.683L679.187 119.973L686.316 120.237L693.445 120.464L701.594 120.716L707.64 125.049L711.293 126.434L713.056 125.238L716.847 124.608L722.666 124.532L726.319 125.162L727.843 126.51L730.815 128.034L735.249 129.722L737.906 131.535L738.775 133.475L740.325 134.722L741.924 135.112Z" fill="#32777C" stroke="white" stroke-opacity="0.5" stroke-width="0.936649" stroke-miterlimit="10" stroke-linecap="round"/>
<path d="M594.322 31.6275L593.78 38.1645L593.226 44.6888L592.684 51.2258L592.142 57.7502L592.13 57.8383L592.117 57.9265L592.105 58.0147L592.092 58.1028L591.941 58.0903L591.777 58.0651L591.626 58.0524L591.462 58.0399L587.104 57.6494L582.734 57.2464L578.376 56.8307L574.018 56.4025L569.66 55.9742L565.302 55.5334L560.944 55.0674L556.586 54.6139L552.228 54.1353L547.883 53.6441L543.525 53.1529L539.167 52.6365L534.821 52.1201L530.476 51.5911L526.118 51.0495L521.773 50.5079L517.427 49.9411L513.094 49.3743L508.749 48.7949L504.404 48.2029L500.071 47.5984L495.726 46.9812L491.393 46.364L487.06 45.7343L482.727 45.0793L478.394 44.4243L474.062 43.7694L469.729 43.0892L465.409 42.4091L461.076 41.7038L456.756 40.9984L452.436 40.2805L451.856 43.7694L451.264 47.2583L450.672 50.7472L450.093 54.2361L448.909 53.2788L448.178 52.2838L447.624 51.2006L446.73 48.2785L446.138 47.1575L445.571 46.4522L444.891 46.2885L443.971 46.49L443.228 47.0064L442.813 48.077L441.956 49.2735L441.818 50.3819L442.007 50.9865L441.855 51.2636L441.402 51.4399L438.316 50.4827L435.482 50.5583L433.681 49.8026L430.028 49.3743L426.98 48.4548L425.885 48.4423L425.091 48.8957L423.958 50.2182L423.68 50.4449L423.315 50.4323L418.403 48.6942L417.068 48.4296L415.481 49.1224L414.889 49.727L414.624 50.6086L414.259 50.7976L413.818 50.6716L412.811 49.8781L411.816 48.6816L411.362 47.8629L411.539 46.2129L410.934 44.1976L411.085 42.5099L410.745 41.011L410.078 39.4366L409.334 38.3534L408.465 37.8622L406.727 37.7363L406.4 37.5221L404.913 35.3306L404.51 34.4111L404.485 33.6428L405.442 31.9928L405.455 30.9852L405.216 29.6879L404.775 28.5543L403.893 27.4837L403.301 25.4054L402.054 22.4078L401.979 20.254L401.651 18.4151L401.79 16.6769L401.349 15.5056L401.664 14.1956L401.626 13.8052L401.462 13.6037L400.442 12.6338L399.346 11.0342L398.729 10.606L398.452 10.5304L398.213 10.8327L397.986 11.4247L395.404 13.188L393.376 13.843L392.28 14.6743L391.374 15.0143L390.945 14.9765L390.404 14.5357L388.804 12.6464L387.381 11.6514L387.28 11.2987L387.633 10.0518L388.653 8.74188L388.464 5.93314L388.867 5.06406L389.585 4.52246L391.474 3.8927L391.739 3.46445L391.877 0.869827L391.134 -0.276344L390.983 -0.855736L391.688 -2.85838L391.55 -4.28165L392.532 -5.26408L392.986 -7.22895L393.993 -9.11824L395.24 -12.0278L395.379 -13.3503L396.462 -14.5972L397.004 -15.9449L397.243 -16.9399V-17.5697L397.016 -17.8594L396.449 -17.9727L393.704 -17.9601L392.885 -18.212L392.205 -18.6403L391.865 -19.2071L391.978 -20.3658L391.55 -21.2349L391.26 -21.4238L389.975 -21.2223L389.736 -21.2979L389.635 -21.5372L389.358 -22.5952L387.834 -24.8875L387.368 -27.2429L385.907 -29.5226L384.698 -32.4825L382.179 -37.2813L381.549 -38.2763L379.282 -40.2412L377.695 -42.7099L375.969 -44.6118L375.818 -44.9141L375.831 -45.0652L375.982 -45.166L376.65 -45.4179L376.952 -46.1484L376.511 -47.8362L377.216 -49.2468L377.166 -51.4384L377.027 -52.1816L376.007 -54.4361L375.466 -56.4891L374.37 -58.5296L372.984 -61.754L374.521 -68.6058L376.07 -75.4702L377.607 -82.3347L379.143 -89.1865L382.519 -88.4308L390.328 -86.7178L398.137 -85.0427L405.959 -83.3927L413.793 -81.7931L415.556 -81.4278L421.627 -80.2187L429.474 -78.6946L437.321 -77.1958L445.181 -75.7347L453.04 -74.3241L460.912 -72.9386L468.797 -71.5909L476.681 -70.281L484.566 -69.0089L490.524 -68.0642L492.463 -67.7745L500.361 -66.5654L508.27 -65.4066L516.193 -64.2856L524.103 -63.2024L532.025 -62.1444L539.96 -61.1368L547.895 -60.1544L555.83 -59.2223L563.765 -58.3155L571.713 -57.459L579.661 -56.6277L587.621 -55.8342L595.568 -55.0911L601.513 -54.5495L601.073 -49.1587L600.619 -43.7553L600.166 -38.3519L599.712 -32.9485L599.259 -27.5452L598.805 -22.1544L598.365 -16.7636L597.911 -11.3728L597.458 -5.99461L597.004 -0.616417L596.563 4.76177L596.11 10.14L595.669 15.5182L595.216 20.8837L594.775 26.2619L594.322 31.6275Z" fill="#32777C" stroke="white" stroke-opacity="0.5" stroke-width="0.936649" stroke-miterlimit="10" stroke-linecap="round"/>
<circle cx="229.68" cy="289.76" r="4.58613" fill="black" stroke="white" stroke-width="1.5"/>
<circle cx="231.815" cy="301.5" r="4.58613" fill="black" stroke="white" stroke-width="1.5"/>
<circle cx="245.688" cy="312.172" r="4.58613" fill="black" stroke="white" stroke-width="1.5"/>
<circle cx="274.504" cy="268.416" r="4.58613" fill="black" stroke="white" stroke-width="1.5"/>
<circle cx="196.596" cy="279.088" r="4.58613" fill="black" stroke="white" stroke-width="1.5"/>
<circle cx="196.596" cy="254.542" r="4.58613" fill="black" stroke="white" stroke-width="1.5"/>
<circle cx="207.268" cy="237.466" r="4.58613" fill="black" stroke="white" stroke-width="1.5"/>
<circle cx="183.789" cy="221.458" r="4.58613" fill="black" stroke="white" stroke-width="1.5"/>
</g>
<defs>
<clipPath id="clip0">
<rect width="695" height="462" rx="8" fill="white"/>
</clipPath>
</defs>
</svg>
