<svg width="26" height="25" viewBox="0 0 26 25" fill="none" xmlns="http://www.w3.org/2000/svg">
<path d="M15.7217 6.20074V10.4797L17.2186 11.4211C17.2726 11.4329 17.3286 11.4329 17.3826 11.4211L23.8186 7.08199C23.8139 6.87141 23.7368 6.66886 23.6004 6.50838C23.4639 6.3479 23.2764 6.23927 23.0693 6.20074H15.7217Z" fill="#0072C6"/>
<path d="M15.722 12.0758L17.0868 13.0133C17.1507 13.0522 17.2241 13.0728 17.2989 13.0728C17.3737 13.0728 17.4471 13.0522 17.511 13.0133C17.2767 13.1547 23.8181 8.81171 23.8181 8.81171V16.6758C23.8351 16.8351 23.8172 16.9963 23.7654 17.148C23.7137 17.2996 23.6294 17.4382 23.5186 17.5539C23.4077 17.6696 23.2729 17.7597 23.1235 17.8179C22.9742 17.876 22.8139 17.9009 22.654 17.8906H15.7212V12.0758H15.722Z" fill="#0072C6"/>
<path d="M8.65627 10.1031C8.4295 10.102 8.20666 10.1623 8.01135 10.2776C7.81605 10.3928 7.65556 10.5588 7.5469 10.7578C7.25011 11.2854 7.10771 11.8859 7.13596 12.4906C7.10512 13.0941 7.24772 13.6938 7.5469 14.2188C7.65511 14.4096 7.81164 14.5686 8.00077 14.6798C8.18991 14.791 8.40497 14.8505 8.62436 14.8522C8.84375 14.8539 9.05973 14.7979 9.2506 14.6897C9.44148 14.5816 9.60052 14.4251 9.71174 14.2359C10.0077 13.7134 10.1473 13.1168 10.1141 12.5172C10.148 11.8987 10.0129 11.2827 9.72346 10.7352C9.62001 10.5426 9.46593 10.382 9.27786 10.2706C9.08978 10.1592 8.87485 10.1013 8.65627 10.1031Z" fill="#0072C6"/>
<path d="M2.18213 4.02734V20.7672L14.9165 23.4375V1.5625L2.18213 4.02734ZM10.704 15.2273C10.4658 15.5632 10.149 15.8356 9.78137 16.021C9.4137 16.2063 9.00628 16.2989 8.59463 16.2906C8.19334 16.2978 7.79626 16.2079 7.43717 16.0286C7.07808 15.8493 6.76759 15.586 6.53213 15.2609C5.97368 14.4813 5.69432 13.5361 5.73916 12.5781C5.69165 11.5732 5.97606 10.5805 6.54853 9.75313C6.78976 9.41088 7.11148 9.13324 7.48533 8.94468C7.85918 8.75612 8.27368 8.66244 8.69229 8.67188C9.09067 8.66388 9.48493 8.7538 9.84045 8.93374C10.196 9.11368 10.5019 9.37814 10.7313 9.70391C11.2842 10.5005 11.5588 11.4572 11.5126 12.4258C11.5613 13.4235 11.2768 14.409 10.704 15.2273Z" fill="#0072C6"/>
</svg>
