<svg width="16" height="12" viewBox="0 0 16 12" fill="none" xmlns="http://www.w3.org/2000/svg">
<path d="M8.00249 7.75723C7.64466 7.75723 7.28637 7.69401 6.94508 7.56733L2.53876 5.93093L2.56015 10.1502C2.56244 10.4563 2.72964 10.7065 2.98596 10.7864C4.69795 11.2842 6.47011 11.5245 8.24457 11.4928C9.88628 11.4636 11.5211 11.2022 13.1031 10.7158C13.3502 10.6398 13.522 10.3767 13.5202 10.0758L13.4984 5.84947L9.10033 7.55181C8.7471 7.68876 8.37457 7.75723 8.00249 7.75723Z" fill="#894CFF"/>
<path d="M0.226468 4.07663L7.27424 6.69423C7.75425 6.87272 8.28158 6.86884 8.75885 6.68373L15.7772 3.96707C15.9844 3.88718 16 3.69887 16 3.64318C16 3.58749 15.9835 3.39918 15.7763 3.31975L8.80111 0.637555C8.55857 0.544656 8.30455 0.498093 8.05053 0.498093C7.79008 0.498093 7.52963 0.546939 7.28204 0.644631L0.220497 3.42908C0.0137906 3.51057 -0.000449195 3.6991 1.01697e-05 3.75502C0.000469535 3.81095 0.0183841 3.99925 0.226468 4.07663Z" fill="#894CFF"/>
<path d="M15.0493 7.75377C15.0493 8.01087 15.261 8.21655 15.5197 8.21655C15.7784 8.21655 15.9901 8.00619 15.9901 7.74441L15.9665 4.89291L15.0305 5.25752L15.0493 7.75377Z" fill="#894CFF"/>
</svg>
