<svg width="16" height="12" viewBox="0 0 16 12" fill="none" xmlns="http://www.w3.org/2000/svg">
<path d="M8.0028 7.75722C7.64497 7.75722 7.28668 7.69399 6.94538 7.56731L2.53906 5.93091L2.56045 10.1502C2.56275 10.4563 2.72995 10.7065 2.98627 10.7864C4.69825 11.2842 6.47042 11.5245 8.24488 11.4928C9.88658 11.4636 11.5214 11.2022 13.1034 10.7158C13.3505 10.6398 13.5223 10.3766 13.5205 10.0758L13.4987 5.84946L9.10064 7.55179C8.7474 7.68874 8.37487 7.75722 8.0028 7.75722Z" fill="#894CFF"/>
<path d="M0.226468 4.07662L7.27424 6.69421C7.75425 6.87271 8.28158 6.86883 8.75885 6.68371L15.7772 3.96705C15.9844 3.88717 16 3.69886 16 3.64316C16 3.58747 15.9835 3.39916 15.7763 3.31973L8.80111 0.637539C8.55857 0.544641 8.30455 0.498077 8.05053 0.498077C7.79008 0.498077 7.52963 0.546923 7.28204 0.644615L0.220497 3.42906C0.0137906 3.51055 -0.000449195 3.69909 1.01697e-05 3.75501C0.000469535 3.81093 0.0183841 3.99924 0.226468 4.07662Z" fill="#894CFF"/>
<path d="M15.0501 7.75377C15.0501 8.01087 15.2617 8.21655 15.5205 8.21655C15.7792 8.21655 15.9908 8.00619 15.9908 7.74441L15.9673 4.89291L15.0312 5.25752L15.0501 7.75377Z" fill="#894CFF"/>
</svg>
