<svg width="16" height="17" viewBox="0 0 16 17" fill="none" xmlns="http://www.w3.org/2000/svg">
<path d="M14.6689 11.7807V13.7807C14.6697 13.9664 14.6316 14.1502 14.5572 14.3203C14.4829 14.4904 14.3738 14.6431 14.237 14.7686C14.1001 14.8941 13.9386 14.9897 13.7627 15.0492C13.5869 15.1087 13.4005 15.1308 13.2156 15.114C11.1641 14.8911 9.19357 14.1901 7.46223 13.0674C5.85145 12.0438 4.48579 10.6782 3.46223 9.06738C2.33555 7.32819 1.6344 5.34805 1.41557 3.28738C1.39891 3.10303 1.42082 2.91722 1.4799 2.7418C1.53898 2.56637 1.63395 2.40518 1.75874 2.26846C1.88354 2.13175 2.03544 2.02252 2.20476 1.94773C2.37409 1.87294 2.55713 1.83422 2.74223 1.83405H4.74223C5.06577 1.83086 5.37943 1.94543 5.62474 2.1564C5.87006 2.36737 6.03029 2.66035 6.07557 2.98072C6.15998 3.62076 6.31653 4.2492 6.54223 4.85405C6.63193 5.09266 6.65134 5.35199 6.59817 5.6013C6.545 5.85061 6.42148 6.07946 6.24223 6.26072L5.39557 7.10738C6.3446 8.77641 7.72654 10.1583 9.39557 11.1074L10.2422 10.2607C10.4235 10.0815 10.6523 9.95795 10.9016 9.90478C11.151 9.85161 11.4103 9.87102 11.6489 9.96072C12.2537 10.1864 12.8822 10.343 13.5222 10.4274C13.8461 10.4731 14.1418 10.6362 14.3533 10.8857C14.5647 11.1352 14.677 11.4538 14.6689 11.7807Z" fill="#808080"/>
</svg>
