<svg width="21" height="20" viewBox="0 0 21 20" fill="none" xmlns="http://www.w3.org/2000/svg">
<path d="M18 8.33334C18 14.1667 10.5 19.1667 10.5 19.1667C10.5 19.1667 3 14.1667 3 8.33334C3 6.34422 3.79018 4.43656 5.1967 3.03004C6.60322 1.62352 8.51088 0.833344 10.5 0.833344C12.4891 0.833344 14.3968 1.62352 15.8033 3.03004C17.2098 4.43656 18 6.34422 18 8.33334Z" stroke="#939393" stroke-width="1.66667" stroke-linecap="round" stroke-linejoin="round"/>
<path d="M10.5 10.8333C11.8807 10.8333 13 9.71406 13 8.33334C13 6.95263 11.8807 5.83334 10.5 5.83334C9.11929 5.83334 8 6.95263 8 8.33334C8 9.71406 9.11929 10.8333 10.5 10.8333Z" stroke="#939393" stroke-width="1.66667" stroke-linecap="round" stroke-linejoin="round"/>
</svg>
