<svg width="45" height="45" viewBox="0 0 45 45" fill="none" xmlns="http://www.w3.org/2000/svg">
<path d="M31.1934 18.4626C31.1439 14.4626 30.4305 10.0757 26.8173 7.71836C23.5549 5.58999 19.1342 5.69364 15.8959 7.77621C15.46 8.05493 15.048 8.36936 14.6642 8.71626C13.2503 10.0189 12.1515 11.6262 11.4511 13.4165C10.6313 15.4926 10.2616 17.719 10.3665 19.9486C10.5677 24.4247 10.082 28.914 10.082 33.4082C10.082 33.5637 10.082 33.742 10.2026 33.8409C10.3102 33.9084 10.4389 33.9337 10.5641 33.912C12.4466 33.8071 14.1134 33.4817 15.9308 33.1792C18.1966 32.8032 20.6395 32.9104 22.933 32.767C24.2985 32.6875 25.7338 32.4669 27.0993 32.526C27.5344 32.5453 31.344 33.1105 31.3609 33.3455C30.9969 28.3609 31.2548 23.4437 31.1934 18.4626ZM17.8905 17.9589L16.1923 16.7537C17.5579 16.2907 18.8532 15.6418 20.0417 14.8254C21.1179 14.1129 22.018 13.165 22.6739 12.0534L23.362 12.4885L17.8905 17.9589Z" fill="#00214E"/>
<path d="M35.7795 34.2145C31.8632 37.2299 27.054 38.8551 22.1113 38.8332C17.1686 38.8114 12.3739 37.1439 8.48438 34.0939L14.3488 31.3449C14.5283 31.26 14.7033 31.1659 14.8731 31.0629L15.0081 30.9785C15.0563 30.9484 15.1033 30.9171 15.1503 30.8845C15.8902 30.3741 16.4965 29.6933 16.9183 28.8996C17.4004 27.9896 17.5595 26.9845 17.5667 25.9601C17.5667 25.3973 17.5438 24.8345 17.5293 24.2728C17.5293 24.1467 17.5269 24.0202 17.5221 23.8932C17.5173 23.5116 17.5133 23.1295 17.51 22.7471H17.5185L17.7487 22.8676L18.3754 23.1918L22.0259 23.8125L25.7764 24.4512L25.862 27.3437L25.8861 28.1728V28.3018L25.9428 30.2144L27.3251 30.7773L28.4098 31.2159L35.7795 34.2145Z" fill="#F2A196"/>
<path d="M25.8609 27.3449C25.6012 27.5228 25.2909 27.612 24.9763 27.5992C23.1951 27.4076 19.7169 26.0107 17.5307 23.4256C17.5307 23.2995 17.5283 23.1729 17.5234 23.046V22.7483L17.7536 22.8688L18.3803 23.193L22.0308 23.8137L25.7814 24.4524L25.8609 27.3449Z" fill="#E88870"/>
<path d="M14.4941 20.9357C15.6257 20.9357 16.543 20.0184 16.543 18.8869C16.543 17.7554 15.6257 16.8381 14.4941 16.8381C13.3626 16.8381 12.4453 17.7554 12.4453 18.8869C12.4453 20.0184 13.3626 20.9357 14.4941 20.9357Z" fill="#F2A196"/>
<path d="M15.2168 20.6947C16.3483 20.6947 17.2656 19.7774 17.2656 18.6459C17.2656 17.5143 16.3483 16.597 15.2168 16.597C14.0853 16.597 13.168 17.5143 13.168 18.6459C13.168 19.7774 14.0853 20.6947 15.2168 20.6947Z" fill="#E88870"/>
<path d="M28.4184 15.7847C29.8333 20.6874 26.8275 26.6158 24.9788 26.6158C22.4479 26.6158 16.3014 24.5935 14.8877 19.6908C13.474 14.788 15.359 9.93836 19.095 8.86091C22.8311 7.78347 27.0035 10.8808 28.4184 15.7847Z" fill="#F2A196"/>
<path d="M21.4258 21.7408C22.0046 22.3878 22.7985 22.8028 23.6602 22.9086" stroke="#00214E" stroke-width="0.143412" stroke-miterlimit="10"/>
<path d="M23.9113 16.3005C23.9053 16.3246 24.4886 17.3322 24.7923 18.4205C24.9334 19.0026 24.999 19.6005 24.9876 20.1993H23.3594" stroke="#00214E" stroke-width="0.143412" stroke-miterlimit="10"/>
<path d="M25.4023 15.2749C26.2538 14.8412 27.2385 14.7481 28.1562 15.0146" stroke="#00214E" stroke-width="0.143412" stroke-miterlimit="10"/>
<path d="M18.2773 15.7546C18.8573 15.4591 19.4953 15.2952 20.1458 15.2744C20.7963 15.2535 21.4435 15.3763 22.0412 15.634" stroke="#00214E" stroke-width="0.143412" stroke-miterlimit="10"/>
<path d="M20.3886 16.8224C21.1238 16.8284 21.1238 17.9529 20.3886 17.9577H20.3561C19.6209 17.9577 19.6209 16.8284 20.3561 16.8224H20.3886Z" fill="#00214E"/>
<path d="M26.4294 16.6548C27.1115 16.6548 27.1115 17.7034 26.4294 17.7082H26.3992C25.7159 17.7082 25.7159 16.6597 26.3992 16.6548H26.4294Z" fill="#00214E"/>
<path d="M24.0281 7.57372C23.9721 8.14128 23.8807 8.7048 23.7545 9.26099C23.5389 10.2425 23.1731 11.1848 22.6699 12.0546C22.014 13.1662 21.1139 14.1141 20.0377 14.8266C18.8492 15.643 17.5539 16.2919 16.1884 16.7549C15.1069 17.1222 14.001 17.4134 12.8789 17.6262C12.9163 16.7067 12.8789 15.569 12.9922 14.5012C13.0766 13.7347 13.2453 13.0031 13.5851 12.4138C14.5073 10.8544 15.8524 9.58825 17.4647 8.76204L17.4791 8.75481C19.2616 7.83766 22.0227 6.93256 24.0281 7.57372Z" fill="#00214E"/>
<path d="M35.7795 34.2145C31.8632 37.23 27.054 38.8551 22.1113 38.8333C17.1686 38.8114 12.3739 37.1439 8.48438 34.094L14.3488 31.3449C14.6281 31.2136 14.8962 31.0597 15.1503 30.8845C15.2274 30.8315 15.3045 30.7761 15.3781 30.7182C16.0163 30.2299 16.5417 29.6095 16.9183 28.8996C17.203 28.3541 17.3922 27.7639 17.4775 27.1545C17.5626 27.237 17.6519 27.315 17.7451 27.3883C18.484 27.9352 19.2859 28.3912 20.1337 28.7465C20.5453 28.9182 20.9662 29.0667 21.3944 29.1913C22.6844 29.5674 24.0313 29.7099 25.3715 29.6119C25.5571 29.5974 25.7439 29.5793 25.9295 29.5661L25.9476 30.1783V30.2181L27.4059 30.811L35.7795 34.2145Z" fill="#F2D4CF"/>
<path d="M22.6698 12.0595C22.0139 13.1711 21.1139 14.1189 20.0377 14.8314C18.8492 15.6479 17.5539 16.2967 16.1883 16.7597L12.9922 14.506L11.4531 13.4214C12.1535 11.6311 13.2523 10.0237 14.6662 8.72111C15.0498 8.37255 15.4618 8.0565 15.8979 7.77625L17.4646 8.76691L22.6698 12.0595Z" fill="url(#paint0_linear_1130:19405)"/>
<defs>
<linearGradient id="paint0_linear_1130:19405" x1="13.2971" y1="17.4045" x2="20.1317" y2="8.30773" gradientUnits="userSpaceOnUse">
<stop offset="0.29" stop-color="#00214E"/>
<stop offset="0.51" stop-color="#6878B1"/>
<stop offset="0.79" stop-color="#00214E"/>
</linearGradient>
</defs>
</svg>
