<svg width="14" height="14" viewBox="0 0 14 14" fill="none" xmlns="http://www.w3.org/2000/svg">
<path d="M6.99935 12.8334C10.221 12.8334 12.8327 10.2217 12.8327 7.00008C12.8327 3.77842 10.221 1.16675 6.99935 1.16675C3.77769 1.16675 1.16602 3.77842 1.16602 7.00008C1.16602 10.2217 3.77769 12.8334 6.99935 12.8334Z" stroke="white" stroke-width="1.67" stroke-linecap="round" stroke-linejoin="round"/>
<path d="M7 9.91675H7.00583" stroke="white" stroke-width="1.67" stroke-linecap="round" stroke-linejoin="round"/>
<path d="M5.30273 5.24984C5.43988 4.85998 5.71057 4.53124 6.06687 4.32184C6.42318 4.11244 6.84209 4.03589 7.24942 4.10576C7.65675 4.17563 8.02621 4.3874 8.29236 4.70357C8.55851 5.01974 8.70418 5.4199 8.70357 5.83318C8.70357 6.99984 6.95357 7.58318 6.95357 7.58318" stroke="white" stroke-width="1.67" stroke-linecap="round" stroke-linejoin="round"/>
</svg>
