<svg width="34" height="33" viewBox="0 0 34 33" fill="none" xmlns="http://www.w3.org/2000/svg">
<g clip-path="url(#clip0_1130:19408)">
<path d="M9.625 11.0104V29.6574H14.9059V23.5172H19.2916V29.6575H24.5725V11.0104L17.0987 6.00836L9.625 11.0104ZM14.4673 22.64H11.8359V20.0086H14.4673V22.64ZM14.4673 18.6929H11.8359V16.0616H14.4673V18.6929ZM14.4673 14.7458H11.8359V12.1144H14.4673V14.7458ZM19.7301 12.1144H22.3616V14.7458H19.7301V12.1144ZM19.7301 16.0616H22.3616V18.6928H19.7301V16.0616ZM19.7301 20.0086H22.3616V22.64H19.7301V20.0086ZM18.4146 22.64H15.783V20.0086H18.4146V22.64ZM18.4146 18.6929H15.783V16.0616H18.4146V18.6929ZM18.4146 14.7458H15.783V12.1144H18.4146V14.7458Z" fill="#00214E"/>
<path d="M16.8557 5.11595H17.3439L25.0627 10.2816H27.516L17.0998 3.34222L6.68359 10.2816H9.13678L16.8557 5.11595Z" fill="#00214E"/>
<path d="M32.5372 18.6195H25.8125V29.6569H32.5372V18.6195ZM30.4906 26.5414H27.8594V23.91H30.4906V26.5414ZM30.4906 22.6395H27.8594V20.0081H30.4906V22.6395Z" fill="#00214E"/>
<path d="M33.195 16.9553H25.8125V17.7423H33.195V16.9553Z" fill="#00214E"/>
<path d="M8.37719 18.6195H1.65234V29.6569H8.37719V18.6195ZM6.33027 26.5414H3.69882V23.91H6.33027V26.5414ZM6.33027 22.6395H3.69882V20.0081H6.33027V22.6395Z" fill="#00214E"/>
<path d="M8.37875 16.9553H0.996094V17.7423H8.37875V16.9553Z" fill="#00214E"/>
</g>
<defs>
<clipPath id="clip0_1130:19408">
<rect width="32.1982" height="32.1982" fill="white" transform="translate(0.996094 0.400879)"/>
</clipPath>
</defs>
</svg>
