<svg width="114" height="20" viewBox="0 0 114 20" fill="none" xmlns="http://www.w3.org/2000/svg">
<path fill-rule="evenodd" clip-rule="evenodd" d="M8.65283 16.9985L0.168457 7.33965H5.73633L8.65283 16.9985ZM8.96191 3.01603L6.72217 6.6793H11.3672L8.96191 3.01603ZM12.0381 6.65452L9.54639 3H14.1533L12.0381 6.65452ZM6.10107 6.6895L8.28369 3H3.60498L6.10107 6.6895ZM14.8989 3.4344L12.6958 6.6793H18L14.8989 3.4344ZM3.26074 3.4344L5.57666 6.6793H0L3.26074 3.4344ZM6.55225 7.3105H11.4785L9.08789 16.8542L6.55225 7.3105ZM9.5083 17L17.8916 7.33965H12.3237L9.5083 17Z" fill="#FFAA18"/>
<path d="M33.082 12.2861C33.082 13.1748 32.7607 13.8721 32.1182 14.3779C31.4756 14.8838 30.5892 15.1367 29.459 15.1367C28.3288 15.1367 27.4036 14.9613 26.6836 14.6104V13.0654C27.1393 13.2796 27.6224 13.4482 28.1328 13.5713C28.6478 13.6943 29.1263 13.7559 29.5684 13.7559C30.2155 13.7559 30.6917 13.6328 30.9971 13.3867C31.307 13.1406 31.4619 12.8102 31.4619 12.3955C31.4619 12.0218 31.3206 11.7051 31.0381 11.4453C30.7555 11.1855 30.1722 10.8779 29.2881 10.5225C28.3766 10.1533 27.734 9.73177 27.3604 9.25781C26.9867 8.78385 26.7998 8.21419 26.7998 7.54883C26.7998 6.71484 27.096 6.05859 27.6885 5.58008C28.2809 5.10156 29.0762 4.8623 30.0742 4.8623C31.0312 4.8623 31.9837 5.07194 32.9316 5.49121L32.4121 6.82422C31.5234 6.45052 30.7305 6.26367 30.0332 6.26367C29.5046 6.26367 29.1035 6.37988 28.8301 6.6123C28.5566 6.84017 28.4199 7.14323 28.4199 7.52148C28.4199 7.78125 28.4746 8.00456 28.584 8.19141C28.6934 8.3737 28.8734 8.54688 29.124 8.71094C29.3747 8.875 29.8258 9.09147 30.4775 9.36035C31.2113 9.66569 31.749 9.95052 32.0908 10.2148C32.4326 10.4792 32.6833 10.7777 32.8428 11.1104C33.0023 11.443 33.082 11.835 33.082 12.2861ZM38.4688 15H36.835V6.40723H33.8955V5.00586H41.4082V6.40723H38.4688V15ZM44.5801 9.6543H45.7148C46.4759 9.6543 47.0273 9.51302 47.3691 9.23047C47.7109 8.94792 47.8818 8.52865 47.8818 7.97266C47.8818 7.40755 47.6973 7.00195 47.3281 6.75586C46.959 6.50977 46.403 6.38672 45.6602 6.38672H44.5801V9.6543ZM44.5801 11.0078V15H42.9463V5.00586H45.7695C47.0592 5.00586 48.014 5.2474 48.6338 5.73047C49.2536 6.21354 49.5635 6.94271 49.5635 7.91797C49.5635 9.16211 48.9163 10.0485 47.6221 10.5771L50.4453 15H48.5859L46.1934 11.0078H44.5801ZM57.5547 15H51.9014V5.00586H57.5547V6.38672H53.5352V9.10742H57.3018V10.4746H53.5352V13.6123H57.5547V15ZM63.1738 15H61.54V6.40723H58.6006V5.00586H66.1133V6.40723H63.1738V15ZM71.9033 6.26367C70.9645 6.26367 70.2262 6.59635 69.6885 7.26172C69.1507 7.92708 68.8818 8.84538 68.8818 10.0166C68.8818 11.2425 69.1393 12.1699 69.6543 12.7988C70.1738 13.4277 70.9235 13.7422 71.9033 13.7422C72.3271 13.7422 72.7373 13.7012 73.1338 13.6191C73.5303 13.5326 73.9427 13.4232 74.3711 13.291V14.6924C73.5872 14.9886 72.6986 15.1367 71.7051 15.1367C70.2422 15.1367 69.1188 14.6947 68.335 13.8105C67.5511 12.9219 67.1592 11.6527 67.1592 10.0029C67.1592 8.96387 67.3483 8.05469 67.7266 7.27539C68.1094 6.49609 68.6608 5.89909 69.3809 5.48438C70.1009 5.06966 70.9463 4.8623 71.917 4.8623C72.9378 4.8623 73.8812 5.0765 74.7471 5.50488L74.1592 6.86523C73.8219 6.70573 73.4642 6.56673 73.0859 6.44824C72.7122 6.3252 72.318 6.26367 71.9033 6.26367ZM84.4062 15H82.7656V10.4951H78.1582V15H76.5244V5.00586H78.1582V9.09375H82.7656V5.00586H84.4062V15ZM89.4102 17.7891C88.9635 17.7891 88.5898 17.7321 88.2891 17.6182V16.2441C88.6719 16.3398 89.0046 16.3877 89.2871 16.3877C90.1803 16.3877 90.627 15.8226 90.627 14.6924V5.00586H92.2676V14.6377C92.2676 15.6585 92.0238 16.4378 91.5361 16.9756C91.0531 17.5179 90.3444 17.7891 89.4102 17.7891ZM103.731 9.98926C103.731 11.6162 103.324 12.8809 102.508 13.7832C101.697 14.6855 100.546 15.1367 99.0557 15.1367C97.5472 15.1367 96.3874 14.6901 95.5762 13.7969C94.7695 12.8991 94.3662 11.6253 94.3662 9.97559C94.3662 8.32585 94.7718 7.05892 95.583 6.1748C96.3988 5.29069 97.5609 4.84863 99.0693 4.84863C100.555 4.84863 101.703 5.29753 102.515 6.19531C103.326 7.0931 103.731 8.35775 103.731 9.98926ZM96.1025 9.98926C96.1025 11.2197 96.3509 12.154 96.8477 12.792C97.3444 13.4255 98.0804 13.7422 99.0557 13.7422C100.026 13.7422 100.758 13.4277 101.25 12.7988C101.747 12.1699 101.995 11.2334 101.995 9.98926C101.995 8.76335 101.749 7.83366 101.257 7.2002C100.769 6.56673 100.04 6.25 99.0693 6.25C98.0895 6.25 97.349 6.56673 96.8477 7.2002C96.3509 7.83366 96.1025 8.76335 96.1025 9.98926ZM105.878 5.00586H108.845C110.221 5.00586 111.215 5.20638 111.825 5.60742C112.44 6.00846 112.748 6.64193 112.748 7.50781C112.748 8.09115 112.598 8.5765 112.297 8.96387C111.996 9.35124 111.563 9.59505 110.998 9.69531V9.76367C111.7 9.89583 112.215 10.1579 112.543 10.5498C112.876 10.9372 113.042 11.4635 113.042 12.1289C113.042 13.0267 112.728 13.7308 112.099 14.2412C111.474 14.7471 110.604 15 109.487 15H105.878V5.00586ZM107.512 9.13477H109.084C109.768 9.13477 110.267 9.02767 110.581 8.81348C110.896 8.59473 111.053 8.22559 111.053 7.70605C111.053 7.23665 110.882 6.89714 110.54 6.6875C110.203 6.47786 109.665 6.37305 108.927 6.37305H107.512V9.13477ZM107.512 10.4609V13.626H109.248C109.932 13.626 110.447 13.4961 110.793 13.2363C111.144 12.972 111.319 12.5573 111.319 11.9922C111.319 11.4727 111.142 11.0876 110.786 10.8369C110.431 10.5863 109.891 10.4609 109.166 10.4609H107.512Z" fill="#FFAA18"/>
</svg>
