<svg width="15" height="16" viewBox="0 0 15 16" fill="none" xmlns="http://www.w3.org/2000/svg">
<path d="M14.7718 8.80081C14.4679 8.31012 14.4679 7.68971 14.7718 7.19903C15.2334 6.45323 14.9706 5.47269 14.1979 5.05764C13.6896 4.7845 13.3793 4.24723 13.397 3.67039C13.4239 2.7937 12.7062 2.07579 11.8295 2.10284C11.2526 2.12053 10.7154 1.81033 10.4422 1.30194C10.0272 0.529268 9.04664 0.266478 8.30084 0.728114C7.81015 1.03197 7.18974 1.03197 6.69905 0.728114C5.95325 0.266478 4.97254 0.529268 4.55765 1.30194C4.28451 1.81033 3.74724 2.12053 3.1704 2.10284C2.29371 2.07596 1.57579 2.7937 1.60284 3.67039C1.62054 4.24723 1.31033 4.7845 0.801947 5.05764C0.0292681 5.47269 -0.233523 6.45323 0.228114 7.19903C0.531977 7.68971 0.531977 8.31012 0.228114 8.80081C-0.233523 9.54661 0.0292681 10.5271 0.801947 10.9422C1.31033 11.2153 1.62054 11.7526 1.60284 12.3294C1.57596 13.2061 2.29371 13.924 3.1704 13.8972C3.74724 13.8795 4.28451 14.1897 4.55765 14.6981C4.97271 15.4707 5.95325 15.7335 6.69905 15.2719C7.18974 14.968 7.81015 14.968 8.30084 15.2719C9.04664 15.7335 10.0273 15.4707 10.4422 14.6981C10.7154 14.1897 11.2526 13.8795 11.8295 13.8972C12.7062 13.924 13.4241 13.2063 13.397 12.3294C13.3793 11.7526 13.6896 11.2153 14.1979 10.9422C14.9708 10.5271 15.2336 9.54644 14.7718 8.80081ZM11.7731 6.6105L6.75081 11.6327L6.72109 11.6624C6.55179 11.8317 6.27715 11.8317 6.10785 11.6624L3.60883 9.16361C3.43954 8.99431 3.43954 8.71967 3.60883 8.55021L4.34345 7.8156C4.51274 7.6463 4.78739 7.6463 4.95685 7.8156L6.41439 9.27313L10.425 5.26249C10.5943 5.0932 10.869 5.0932 11.0384 5.26249L11.7731 5.9971C11.9425 6.16656 11.9425 6.44121 11.7731 6.6105Z" fill="#328AFF"/>
</svg>
