<svg width="20" height="20" viewBox="0 0 20 20" fill="none" xmlns="http://www.w3.org/2000/svg">
<path d="M9.99935 1.66675C5.39685 1.66675 1.66602 5.39758 1.66602 10.0001C1.66602 14.6026 5.39685 18.3334 9.99935 18.3334C14.6019 18.3334 18.3327 14.6026 18.3327 10.0001C18.3327 5.39758 14.6019 1.66675 9.99935 1.66675ZM12.1544 13.3334L9.41018 10.5892C9.25352 10.4326 9.16602 10.2209 9.16602 10.0001V5.83342C9.16602 5.37341 9.53935 5.00008 9.99935 5.00008C10.4594 5.00008 10.8327 5.37341 10.8327 5.83342V9.65508L13.3327 12.1551C13.6577 12.4801 13.6577 13.0084 13.3327 13.3334C13.0077 13.6584 12.4794 13.6584 12.1544 13.3334Z" fill="#39B96C"/>
</svg>
