<svg width="174" height="41" viewBox="0 0 174 41" fill="none" xmlns="http://www.w3.org/2000/svg">
<path d="M36.3346 26.5V25.1667C36.3346 24.4594 36.0537 23.7811 35.5536 23.281C35.0535 22.781 34.3752 22.5 33.668 22.5H28.3346C27.6274 22.5 26.9491 22.781 26.449 23.281C25.9489 23.7811 25.668 24.4594 25.668 25.1667V26.5" stroke="#0667C3" stroke-width="1.67" stroke-linecap="round" stroke-linejoin="round"/>
<path d="M30.9987 19.8333C32.4715 19.8333 33.6654 18.6394 33.6654 17.1667C33.6654 15.6939 32.4715 14.5 30.9987 14.5C29.5259 14.5 28.332 15.6939 28.332 17.1667C28.332 18.6394 29.5259 19.8333 30.9987 19.8333Z" stroke="#0667C3" stroke-width="1.67" stroke-linecap="round" stroke-linejoin="round"/>
<path d="M47.7776 15.8182H45.7542L49.3387 26H51.6157L55.2052 15.8182H53.1768L50.5319 23.8324H50.4275L47.7776 15.8182ZM56.4667 26H58.2664V18.3636H56.4667V26ZM57.3715 17.2798C57.9433 17.2798 58.4106 16.8423 58.4106 16.3054C58.4106 15.7635 57.9433 15.326 57.3715 15.326C56.7948 15.326 56.3275 15.7635 56.3275 16.3054C56.3275 16.8423 56.7948 17.2798 57.3715 17.2798ZM63.4978 26.1491C65.2776 26.1491 66.5006 25.2791 66.8188 23.9517L65.1384 23.7628C64.8948 24.4091 64.2982 24.7472 63.5226 24.7472C62.3593 24.7472 61.5887 23.9815 61.5738 22.674H66.8934V22.1222C66.8934 19.4425 65.2826 18.2642 63.4033 18.2642C61.2158 18.2642 59.789 19.87 59.789 22.2266C59.789 24.6229 61.1959 26.1491 63.4978 26.1491ZM61.5787 21.4609C61.6334 20.4865 62.3543 19.6662 63.4282 19.6662C64.4623 19.6662 65.1583 20.4219 65.1682 21.4609H61.5787ZM69.9509 26H71.8302L73.262 20.8395H73.3664L74.7982 26H76.6725L78.8351 18.3636H76.9956L75.6732 23.7031H75.5986L74.2265 18.3636H72.4118L71.0397 23.733H70.9701L69.6278 18.3636H67.7932L69.9509 26ZM87.4323 18.3636H85.8463V17.7621C85.8463 17.1655 86.0949 16.8324 86.7661 16.8324C87.0494 16.8324 87.2881 16.897 87.4372 16.9418L87.8002 15.5497C87.5665 15.4702 87.0544 15.3409 86.433 15.3409C85.1056 15.3409 84.0466 16.1016 84.0466 17.6428V18.3636H82.9181V19.7557H84.0466V26H85.8463V19.7557H87.4323V18.3636ZM93.7089 22.7884C93.7089 23.9517 92.8786 24.5284 92.0832 24.5284C91.2181 24.5284 90.6414 23.9169 90.6414 22.9474V18.3636H88.8417V23.2259C88.8417 25.0604 89.8857 26.0994 91.3872 26.0994C92.5306 26.0994 93.336 25.4979 93.684 24.6428H93.7636V26H95.5086V18.3636H93.7089V22.7884ZM99.159 15.8182H97.3593V26H99.159V15.8182ZM102.809 15.8182H101.01V26H102.809V15.8182ZM108.133 28.8636H109.932V24.7969H110.007C110.29 25.3537 110.882 26.1342 112.195 26.1342C113.994 26.1342 115.342 24.7074 115.342 22.1918C115.342 19.6463 113.954 18.2642 112.19 18.2642C110.842 18.2642 110.28 19.0746 110.007 19.6264H109.903V18.3636H108.133V28.8636ZM109.898 22.1818C109.898 20.7003 110.534 19.7408 111.692 19.7408C112.891 19.7408 113.507 20.7599 113.507 22.1818C113.507 23.6136 112.881 24.6577 111.692 24.6577C110.544 24.6577 109.898 23.6634 109.898 22.1818ZM116.883 26H118.682V21.5107C118.682 20.5412 119.413 19.8551 120.403 19.8551C120.706 19.8551 121.084 19.9098 121.238 19.9595V18.304C121.074 18.2741 120.79 18.2543 120.592 18.2543C119.717 18.2543 118.986 18.7514 118.707 19.6364H118.628V18.3636H116.883V26ZM125.45 26.1491C127.687 26.1491 129.109 24.5732 129.109 22.2116C129.109 19.8452 127.687 18.2642 125.45 18.2642C123.213 18.2642 121.791 19.8452 121.791 22.2116C121.791 24.5732 123.213 26.1491 125.45 26.1491ZM125.46 24.7074C124.222 24.7074 123.616 23.6037 123.616 22.2067C123.616 20.8097 124.222 19.6911 125.46 19.6911C126.678 19.6911 127.285 20.8097 127.285 22.2067C127.285 23.6037 126.678 24.7074 125.46 24.7074ZM134.505 18.3636H132.919V17.7621C132.919 17.1655 133.167 16.8324 133.838 16.8324C134.122 16.8324 134.36 16.897 134.509 16.9418L134.872 15.5497C134.639 15.4702 134.127 15.3409 133.505 15.3409C132.178 15.3409 131.119 16.1016 131.119 17.6428V18.3636H129.99V19.7557H131.119V26H132.919V19.7557H134.505V18.3636ZM135.914 26H137.714V18.3636H135.914V26ZM136.819 17.2798C137.391 17.2798 137.858 16.8423 137.858 16.3054C137.858 15.7635 137.391 15.326 136.819 15.326C136.242 15.326 135.775 15.7635 135.775 16.3054C135.775 16.8423 136.242 17.2798 136.819 17.2798ZM141.364 15.8182H139.564V26H141.364V15.8182ZM146.595 26.1491C148.375 26.1491 149.598 25.2791 149.916 23.9517L148.236 23.7628C147.992 24.4091 147.396 24.7472 146.62 24.7472C145.457 24.7472 144.686 23.9815 144.671 22.674H149.991V22.1222C149.991 19.4425 148.38 18.2642 146.501 18.2642C144.313 18.2642 142.887 19.87 142.887 22.2266C142.887 24.6229 144.294 26.1491 146.595 26.1491ZM144.676 21.4609C144.731 20.4865 145.452 19.6662 146.526 19.6662C147.56 19.6662 148.256 20.4219 148.266 21.4609H144.676Z" fill="#0667C3"/>
<path d="M20.5 1H153.5V-1H20.5V1ZM153.5 40H20.5V42H153.5V40ZM20.5 40C9.73045 40 1 31.2696 1 20.5H-1C-1 32.3741 8.62588 42 20.5 42V40ZM173 20.5C173 31.2696 164.27 40 153.5 40V42C165.374 42 175 32.3741 175 20.5H173ZM153.5 1C164.27 1 173 9.73045 173 20.5H175C175 8.62588 165.374 -1 153.5 -1V1ZM20.5 -1C8.62588 -1 -1 8.62588 -1 20.5H1C1 9.73045 9.73045 1 20.5 1V-1Z" fill="#0667C3"/>
</svg>
